<?xml version="1.0" standalone="no"?>
<!DOCTYPE svg PUBLIC "-//W3C//DTD SVG 1.1//EN" "http://www.w3.org/Graphics/SVG/1.1/DTD/svg11.dtd" >
<svg>
<metadata>
Created by FontForge 20110222 at Wed Jun  4 16:13:28 2014
 By deploy user
Copyright (c) 1988, 1990, 1993, 2003 Linotype Library GmbH, www.linotype.com. All rights reserved. Copyright (c) 1988, 1990, 1993 Adobe Systems Incorporated. All Rights Reserved.
</metadata>
<defs>
<font id="HelveticaNeueLTPro-LtEx" horiz-adv-x="184" >
  <font-face 
    font-family="HelveticaNeueLT Pro 43 LtEx"
    font-weight="300"
    font-stretch="normal"
    units-per-em="1000"
    panose-1="2 11 5 3 2 2 2 2 2 4"
    ascent="714"
    descent="-286"
    x-height="520"
    cap-height="714"
    bbox="-158 -220 1160 971"
    underline-thickness="50"
    underline-position="-50"
    unicode-range="U+000D-FB02"
  />
<missing-glyph horiz-adv-x="512" 
d="M222 117h56v67h-56v-67zM225 234h46q0 52 6 72q6 19 43 52q37 34 50 60t13 60q0 59 -35 95t-89 36q-56 0 -92 -34t-43 -103l50 -8q11 95 82 95q31 0 53.5 -24.5t22.5 -60.5q0 -20 -9.5 -37t-40.5 -46q-31 -31 -46 -59q-13 -25 -13 -81zM462 50h-412v617h412v-617z
M512 718h-512v-718h512v718z" />
    <glyph glyph-name="IJ" unicode="IJ" horiz-adv-x="787" 
d="M74 0l-1 714h74l1 -714h-74zM326 234v-26q-2 -164 158 -164q80 0 119.5 38.5t39.5 137.5v494h74v-514q0 -100 -59.5 -159t-177.5 -59q-63 0 -108.5 18.5t-68 43.5t-35 64t-14.5 64.5t-2 61.5h74z" />
    <glyph glyph-name="ij" unicode="ij" horiz-adv-x="403" 
d="M54 610v110h74v-110h-74zM55 0l-1 520h74l1 -520h-74zM273 610v110h74v-110h-74zM144 -217v62q16 -3 50 -3q46 0 62.5 18.5t16.5 60.5v599h74v-599q0 -141 -133 -141q-1 0 -70 3z" />
    <glyph glyph-name="napostrophe" unicode="&#x22;n" horiz-adv-x="639" 
d="M508 0l-1 335q0 139 -157 139q-106 0 -158.5 -50t-52.5 -142l1 -282h-74l-1 520h74v-102h2q17 46 75.5 82t139.5 36q122 0 173.5 -56.5t51.5 -157.5l1 -322h-74zM27 714v100h74v-91q0 -73 -80 -79v31q33 8 34 39h-28z" />
    <glyph glyph-name="fi" unicode="fi" horiz-adv-x="500" 
d="M370 610v110h74v-110h-74zM371 0l-1 520h74l1 -520h-74zM107 0l-1 464h-112v56h112v69q0 72 35.5 101.5t110.5 29.5q52 0 83 -4v-62q-31 4 -69 4q-50 0 -68 -16t-18 -61v-61h147v-56h-147l1 -464h-74z" />
    <glyph glyph-name="fl" unicode="fl" horiz-adv-x="500" 
d="M107 0l-1 464h-112v56h112v69q0 72 35.5 101.5t110.5 29.5q52 0 83 -4v-62q-31 4 -69 4q-50 0 -68 -16t-18 -61v-61h147v-56h-147l1 -464h-74zM371 0l-1 720h74l1 -720h-74z" />
    <glyph glyph-name=".notdef" horiz-adv-x="512" 
d="M222 117h56v67h-56v-67zM225 234h46q0 52 6 72q6 19 43 52q37 34 50 60t13 60q0 59 -35 95t-89 36q-56 0 -92 -34t-43 -103l50 -8q11 95 82 95q31 0 53.5 -24.5t22.5 -60.5q0 -20 -9.5 -37t-40.5 -46q-31 -31 -46 -59q-13 -25 -13 -81zM462 50h-412v617h412v-617z
M512 718h-512v-718h512v718z" />
    <glyph glyph-name=".null" horiz-adv-x="500" 
 />
    <glyph glyph-name=".null" horiz-adv-x="500" 
 />
    <glyph glyph-name="nonmarkingreturn" horiz-adv-x="333" 
 />
    <glyph glyph-name="CR" unicode="&#xd;" horiz-adv-x="0" 
 />
    <glyph glyph-name="space" unicode=" " horiz-adv-x="278" 
 />
    <glyph glyph-name="exclam" unicode="!" horiz-adv-x="296" 
d="M125 185l-18 340v189h80v-189l-18 -340h-44zM105 0l-1 110h86l1 -110h-86z" />
    <glyph glyph-name="quotedbl" unicode="&#x22;" horiz-adv-x="407" 
d="M249 464v250h56v-250h-56zM100 464v250h56v-250h-56z" />
    <glyph glyph-name="numbersign" unicode="#" horiz-adv-x="668" 
d="M393 270l22 154h-142l-22 -154h142zM164 0l31 226h-114v44h120l22 154h-114v44h120l32 226h50l-32 -226h142l32 226h50l-32 -226h114v-44h-120l-22 -154h114v-44h-120l-31 -226h-50l31 226h-142l-31 -226h-50z" />
    <glyph glyph-name="dollar" unicode="$" horiz-adv-x="668" 
d="M306 52v273q-49 8 -79.5 14.5t-69.5 20.5t-61 32t-37.5 48t-15.5 70q0 52 22 91t60 61.5t83 33.5t98 12v61h56v-61q53 -3 96.5 -15.5t81 -36.5t59.5 -65t24 -96h-74q-6 73 -55 105.5t-132 39.5v-255q152 -20 217 -63.5t65 -122.5q0 -59 -24.5 -102t-66.5 -66.5t-89 -34.5
t-102 -12v-97h-56v97q-284 14 -284 245h74q0 -163 210 -177zM362 317v-265q86 0 144 32t58 102q0 52 -47 84.5t-155 46.5zM306 396v244q-183 -7 -183 -123q0 -54 47.5 -80.5t135.5 -40.5z" />
    <glyph glyph-name="percent" unicode="%" horiz-adv-x="963" 
d="M236 320q-78 0 -126.5 50.5t-48.5 143.5t48.5 143.5t126.5 50.5t126.5 -50.5t48.5 -143.5t-48.5 -143.5t-126.5 -50.5zM725 -16q-78 0 -126.5 50.5t-48.5 143.5t48.5 143.5t126.5 50.5t126.5 -50.5t48.5 -143.5t-48.5 -143.5t-126.5 -50.5zM236 370q54 0 83.5 38
t29.5 106t-29.5 106t-83.5 38t-83.5 -38t-29.5 -106t29.5 -106t83.5 -38zM212 -16l476 724h59l-476 -724h-59zM725 34q54 0 83.5 38t29.5 106t-29.5 106t-83.5 38t-83.5 -38t-29.5 -106t29.5 -106t83.5 -38z" />
    <glyph glyph-name="ampersand" unicode="&#x26;" horiz-adv-x="778" 
d="M458 565q0 38 -27.5 62.5t-84.5 24.5q-40 0 -70 -23t-30 -60q0 -25 16 -52t71 -82q125 53 125 130zM698 0l-94 89q-39 -49 -109 -77t-155 -28q-131 0 -200.5 58.5t-69.5 154.5q0 73 46 121t152 91q-46 41 -68 76t-22 81q0 66 48 107t126 41q89 0 131.5 -43.5t42.5 -101.5
q0 -109 -149 -173l219 -207q14 20 24.5 56.5t13.5 63.5h68q0 -32 -15 -78.5t-42 -86.5l154 -144h-101zM557 132l-247 234q-86 -33 -126 -73.5t-40 -99.5q0 -62 50.5 -104.5t149.5 -42.5q66 0 116 19t97 67z" />
    <glyph glyph-name="quotesingle" unicode="'" horiz-adv-x="278" 
d="M110 464v250h56v-250h-56z" />
    <glyph glyph-name="parenleft" unicode="(" horiz-adv-x="352" 
d="M261 714h56q-34 -48 -54 -80t-49.5 -92t-44 -130.5t-14.5 -149.5t14.5 -149.5t44 -130.5t49.5 -92t54 -80h-56q-8 8 -22.5 25.5t-44 62.5t-53 95t-42 123t-18.5 146t18.5 146t42 123t53 95t44 62.5t22.5 25.5z" />
    <glyph glyph-name="parenright" unicode=")" horiz-adv-x="352" 
d="M89 -190h-55q34 49 53.5 80.5t49 92t44 130.5t14.5 149t-14.5 149.5t-44 130.5t-49.5 92t-54 80h56q8 -8 22.5 -25.5t44 -62.5t53 -95t42 -123t18.5 -146t-18.5 -146t-42 -123t-53 -95t-44 -62.5t-22.5 -25.5z" />
    <glyph glyph-name="asterisk" unicode="*" horiz-adv-x="426" 
d="M184 580v134h56v-134l127 48l20 -49l-132 -50l92 -103l-38 -36l-97 109l-97 -109l-38 36l92 103l-132 50l20 49z" />
    <glyph glyph-name="plus" unicode="+" horiz-adv-x="600" 
d="M275 0l-1 228h-228v50h228v228h50v-228h228v-50h-228l1 -228h-50z" />
    <glyph glyph-name="comma" unicode="," horiz-adv-x="278" 
d="M96 0l-1 110h86v-112q0 -112 -95 -138v38q28 13 36.5 36t9.5 66h-36z" />
    <glyph glyph-name="hyphen" unicode="-" horiz-adv-x="444" 
d="M68 237v74h304v-74h-304z" />
    <glyph glyph-name="period" unicode="." horiz-adv-x="278" 
d="M96 0l-1 110h86l1 -110h-86z" />
    <glyph glyph-name="slash" unicode="/" horiz-adv-x="407" 
d="M3 -18l343 750h56l-343 -750h-56z" />
    <glyph glyph-name="zero" unicode="0" horiz-adv-x="668" 
d="M333 708q135 0 213.5 -90t78.5 -273q0 -181 -78.5 -271t-213.5 -90t-213.5 90t-78.5 271q0 183 78.5 273t213.5 90zM333 646q-218 0 -218 -301q0 -299 218 -299t218 299q0 301 -218 301z" />
    <glyph glyph-name="one" unicode="1" horiz-adv-x="444" 
d="M236 0l-1 520h-216v56h49q92 0 128 24t51 108h62l1 -708h-74z" />
    <glyph glyph-name="two" unicode="2" horiz-adv-x="668" 
d="M593 68l1 -68h-542q4 36 12.5 63t32.5 63.5t74 74.5t126 78q127 67 170.5 108t43.5 108q0 76 -46 113.5t-131 37.5q-57 0 -96.5 -16t-59.5 -44.5t-28.5 -59t-9.5 -69.5h-74q0 128 70.5 189.5t198.5 61.5q68 0 118.5 -19t78 -50.5t40.5 -68t13 -76.5q0 -44 -12 -78
t-39 -60.5t-53 -44.5t-69 -42q-153 -83 -204.5 -121t-64.5 -80h450z" />
    <glyph glyph-name="three" unicode="3" horiz-adv-x="668" 
d="M281 336v62h48q88 0 132 26t44 92q0 64 -45.5 97t-122.5 33q-196 0 -196 -171h-74q2 102 69.5 167.5t200.5 65.5q47 0 88.5 -10.5t77 -32.5t56 -60.5t20.5 -88.5q0 -52 -34.5 -93t-95.5 -49v-2q68 -6 112.5 -53t44.5 -123q0 -57 -21.5 -99t-60.5 -66t-88 -35.5
t-108 -11.5q-137 0 -207.5 61.5t-71.5 179.5h74q4 -95 57.5 -137t158.5 -42q103 0 148 42.5t45 105.5q0 81 -51 111.5t-140 30.5h-60z" />
    <glyph glyph-name="four" unicode="4" horiz-adv-x="668" 
d="M418 0l-1 174h-376v68l379 466h65v-472h132v-62h-132l1 -174h-68zM417 236v368h-2l-300 -368h302z" />
    <glyph glyph-name="five" unicode="5" horiz-adv-x="668" 
d="M71 326l70 366h417v-62h-361l-49 -229l2 -2q70 68 181 68q128 0 199.5 -65.5t71.5 -175.5q0 -42 -13 -81t-42.5 -77t-86.5 -61t-135 -23q-127 0 -196 56.5t-81 158.5h74q13 -77 62 -115t141 -38q91 0 147 45.5t56 134.5q0 85 -54.5 132t-153.5 47q-112 0 -180 -82z" />
    <glyph glyph-name="six" unicode="6" horiz-adv-x="668" 
d="M140 226q0 -72 50.5 -126t150.5 -54q84 0 140.5 48t56.5 130q0 77 -53 127.5t-144 50.5q-58 0 -99.5 -17.5t-62.5 -45.5t-30 -56t-9 -57zM594 528h-74q-5 56 -50 87t-129 31q-106 0 -160.5 -72t-58.5 -237l2 -2q73 129 217 129q124 0 197.5 -63.5t73.5 -177.5
t-76.5 -176.5t-194.5 -62.5q-287 0 -287 338q0 181 70.5 283.5t216.5 102.5q121 0 183.5 -52t69.5 -128z" />
    <glyph glyph-name="seven" unicode="7" horiz-adv-x="593" 
d="M551 692v-68q-35 -32 -78 -86.5t-92.5 -134t-90 -186.5t-55.5 -217h-80q19 163 119.5 345.5t205.5 278.5h-454v68h525z" />
    <glyph glyph-name="eight" unicode="8" horiz-adv-x="668" 
d="M333 408q88 0 133 31.5t45 83.5q0 67 -51 95t-127 28t-127 -28t-51 -95q0 -52 45 -83.5t133 -31.5zM47 193q0 146 167 185v2q-18 5 -29 9t-33 16t-35.5 26.5t-24.5 39.5t-11 56q0 32 11.5 61t37.5 57.5t78 45.5t125 17t125 -17t78 -45.5t37.5 -57.5t11.5 -61
q0 -31 -11 -56t-24.5 -39.5t-35.5 -26.5t-33 -16t-29 -9v-2q167 -39 167 -185q0 -39 -14 -73.5t-44.5 -66.5t-89 -50.5t-138.5 -18.5t-138.5 18.5t-89 50.5t-44.5 66.5t-14 73.5zM121 193q0 -74 58 -110.5t154 -36.5t154 36.5t58 110.5q0 76 -59.5 114.5t-152.5 38.5
t-152.5 -38.5t-59.5 -114.5z" />
    <glyph glyph-name="nine" unicode="9" horiz-adv-x="668" 
d="M526 466q0 72 -50.5 126t-150.5 54q-84 0 -140.5 -48t-56.5 -130q0 -78 53 -128t144 -50q58 0 99.5 17.5t62.5 45.5t30 56t9 57zM72 164h74q5 -56 50 -87t129 -31q107 0 161 72t58 237l-2 2q-73 -129 -217 -129q-124 0 -197.5 63.5t-73.5 177.5t76.5 176.5t194.5 62.5
q287 0 287 -338q0 -181 -70.5 -283.5t-216.5 -102.5q-121 0 -183.5 52t-69.5 128z" />
    <glyph glyph-name="colon" unicode=":" horiz-adv-x="278" 
d="M95 396v110h86v-110h-86zM96 0l-1 110h86l1 -110h-86z" />
    <glyph glyph-name="semicolon" unicode=";" horiz-adv-x="278" 
d="M94 396v110h86v-110h-86zM96 0l-2 110h86v-112q0 -112 -95 -138v38q28 13 36 35t11 67h-36z" />
    <glyph glyph-name="semicolon" unicode="&#x37e;" horiz-adv-x="278" 
d="M94 396v110h86v-110h-86zM96 0l-2 110h86v-112q0 -112 -95 -138v38q28 13 36 35t11 67h-36z" />
    <glyph glyph-name="less" unicode="&#x3c;" horiz-adv-x="600" 
d="M46 225v56l506 233v-56l-444 -205l444 -205v-56z" />
    <glyph glyph-name="equal" unicode="=" horiz-adv-x="600" 
d="M46 131v50h506v-50h-506zM46 325v50h506v-50h-506z" />
    <glyph glyph-name="greater" unicode="&#x3e;" horiz-adv-x="600" 
d="M490 253l-444 205v56l506 -233v-56l-506 -233v56z" />
    <glyph glyph-name="question" unicode="?" horiz-adv-x="648" 
d="M262 0l-1 110h86l1 -110h-86zM127 491h-74q0 105 67 173t192 68q108 0 183.5 -52.5t75.5 -153.5q0 -65 -30.5 -103.5t-112.5 -95.5q-63 -44 -76.5 -67.5t-13.5 -74.5h-68q0 77 18 104t113 98q27 20 38 29t28 27.5t23.5 38t6.5 44.5q0 63 -52.5 100.5t-132.5 37.5
q-93 0 -138 -46.5t-47 -126.5z" />
    <glyph glyph-name="at" unicode="@" horiz-adv-x="800" 
d="M540 494l24 67h56l-99 -298q-12 -39 -12 -60q0 -26 26 -26q61 0 115.5 82.5t54.5 163.5q0 116 -85.5 190.5t-201.5 74.5q-138 0 -231.5 -98t-93.5 -233q0 -137 95 -234t230 -97q79 0 153 39t113 102h56q-48 -85 -136 -135t-186 -50q-159 0 -267 110t-108 265
q0 156 110 265.5t265 109.5q142 0 239.5 -89t97.5 -223q0 -113 -74 -200t-156 -87q-29 0 -47.5 17.5t-18.5 51.5h-2q-62 -69 -135 -69q-62 0 -99.5 42.5t-37.5 106.5q0 112 70 204.5t175 92.5q79 0 110 -85zM247 287q0 -104 83 -104q48 0 91 43t65 99.5t22 104.5
q0 51 -19 75t-63 24q-50 0 -92.5 -40.5t-64.5 -96t-22 -105.5z" />
    <glyph glyph-name="A" unicode="A" horiz-adv-x="722" 
d="M642 0l-96 217h-376l-96 -217h-80l323 714h86l325 -714h-86zM516 285l-157 355l-159 -355h316z" />
    <glyph glyph-name="B" unicode="B" horiz-adv-x="741" 
d="M139 336v-268h311q76 0 122 33t46 103q0 73 -39.5 102.5t-110.5 29.5h-329zM139 646v-242h293q80 0 122 29.5t42 97.5q0 115 -139 115h-318zM66 0l-1 714h406q100 0 149.5 -49.5t49.5 -130.5q0 -55 -31 -97t-92 -56v-2q71 -11 111 -58t40 -117q0 -53 -21 -94t-56 -64
t-75 -34.5t-83 -11.5h-397z" />
    <glyph glyph-name="C" unicode="C" horiz-adv-x="815" 
d="M699 272h74q-12 -124 -108 -207t-245 -83q-175 0 -277.5 101.5t-102.5 273.5q0 52 12.5 102.5t41 100.5t71 87.5t108.5 61t147 23.5q61 0 117 -14.5t106 -44t83 -81t41 -119.5h-74q-15 96 -91.5 143.5t-181.5 47.5q-138 0 -219 -78t-81 -229q0 -62 17 -115.5t51.5 -97.5
t94 -69t137.5 -25q240 0 279 222z" />
    <glyph glyph-name="D" unicode="D" horiz-adv-x="778" 
d="M139 646v-578h270q107 0 173 68t66 221q0 289 -239 289h-270zM66 0l-1 714h347q154 0 235 -93.5t81 -263.5q0 -157 -79.5 -257t-224.5 -100h-358z" />
    <glyph glyph-name="E" unicode="E" horiz-adv-x="685" 
d="M78 0l-1 714h568v-68h-494v-242h476v-68h-476v-268h502l1 -68h-576z" />
    <glyph glyph-name="F" unicode="F" horiz-adv-x="611" 
d="M66 0l-1 714h535v-68h-461v-242h438v-68h-438l1 -336h-74z" />
    <glyph glyph-name="G" unicode="G" horiz-adv-x="852" 
d="M729 0l-11 135h-2q-56 -80 -125 -116.5t-172 -36.5q-178 0 -276 102t-98 273q0 165 104 270t278 105q144 0 237 -70t108 -174h-80q-22 87 -93 131.5t-172 44.5q-144 0 -223 -82t-79 -225q0 -146 73.5 -226.5t214.5 -80.5q263 0 304 250h-262v68h330l1 -368h-57z" />
    <glyph glyph-name="H" unicode="H" horiz-adv-x="796" 
d="M66 0l-1 714h74v-302h516v302h74l1 -714h-74l-1 344h-516l1 -344h-74z" />
    <glyph glyph-name="I" unicode="I" horiz-adv-x="222" 
d="M74 0l-1 714h74l1 -714h-74z" />
    <glyph glyph-name="J" unicode="J" horiz-adv-x="556" 
d="M98 234v-26q-2 -164 158 -164q80 0 119.5 38.5t39.5 137.5v494h74v-514q0 -100 -59.5 -159t-177.5 -59q-63 0 -108.5 18.5t-68 43.5t-35 64t-14.5 64.5t-2 61.5h74z" />
    <glyph glyph-name="K" unicode="K" horiz-adv-x="741" 
d="M78 0l-1 714h74v-386l461 386h107l-354 -295l379 -419h-105l-332 369l-156 -128l1 -241h-74z" />
    <glyph glyph-name="L" unicode="L" horiz-adv-x="593" 
d="M66 0l-1 714h74v-646h453l1 -68h-527z" />
    <glyph glyph-name="M" unicode="M" horiz-adv-x="981" 
d="M491 93l318 621h105l1 -714h-74l-1 617h-2l-314 -617h-68l-315 618h-2l1 -618h-74l-1 714h108z" />
    <glyph glyph-name="N" unicode="N" horiz-adv-x="796" 
d="M66 0l-1 714h89l499 -610h2v610h74l1 -714h-86l-503 610h-2l1 -610h-74z" />
    <glyph glyph-name="O" unicode="O" horiz-adv-x="852" 
d="M117 357q0 -78 25.5 -138.5t69.5 -96.5t98 -54t115 -18t115 18t98 54t69.5 96.5t25.5 138.5t-25.5 138.5t-69.5 96.5t-98 54t-115 18t-115 -18t-98 -54t-69.5 -96.5t-25.5 -138.5zM37 357q0 91 32 164t86.5 118.5t123 69t146.5 23.5t146.5 -23.5t123 -69t86.5 -118.5
t32 -164t-32 -164t-86.5 -118.5t-123 -69t-146.5 -23.5t-146.5 23.5t-123 69t-86.5 118.5t-32 164z" />
    <glyph glyph-name="P" unicode="P" horiz-adv-x="704" 
d="M78 0l-1 714h385q92 0 153.5 -50t61.5 -156q0 -102 -64 -155t-184 -53h-278l1 -300h-74zM151 646v-278h286q88 0 124 36t36 104q0 76 -38 107t-107 31h-301z" />
    <glyph glyph-name="Q" unicode="Q" horiz-adv-x="852" 
d="M793 -14l-39 -49l-123 95q-87 -50 -206 -50q-78 0 -146.5 23.5t-123 69t-86.5 118.5t-32 164t32 164t86.5 118.5t123 69t146.5 23.5t146.5 -23.5t123 -69t86.5 -118.5t32 -164q0 -189 -127 -288zM475 152l39 49l112 -86q107 80 107 242q0 78 -25.5 138.5t-69.5 96.5
t-98 54t-115 18t-115 -18t-98 -54t-69.5 -96.5t-25.5 -138.5t25.5 -138.5t69.5 -96.5t98 -54t115 -18q80 0 143 30z" />
    <glyph glyph-name="R" unicode="R" horiz-adv-x="741" 
d="M151 646v-264h313q154 0 154 139q0 125 -147 125h-320zM78 0l-1 714h389q103 0 167.5 -44.5t64.5 -148.5q0 -60 -37 -109t-103 -64v-2q71 -11 97 -57t30 -141q9 -134 26 -148h-80q-18 18 -20 146q-2 94 -40.5 131t-132.5 37h-287l1 -314h-74z" />
    <glyph glyph-name="S" unicode="S" horiz-adv-x="668" 
d="M623 510h-74q-14 154 -224 154q-89 0 -145.5 -33.5t-56.5 -92.5q0 -34 15 -57t52.5 -39t78.5 -26t115 -22q46 -7 78 -14.5t69 -22t59.5 -33.5t38 -49.5t15.5 -69.5q0 -63 -26.5 -108.5t-71.5 -69.5t-94 -34.5t-106 -10.5q-146 0 -231 59t-93 195h74q9 -105 73 -145.5
t177 -40.5q59 0 105 11.5t79.5 44.5t33.5 86q0 25 -8 44.5t-27 33t-35.5 22.5t-50.5 17t-53.5 11.5t-60.5 10.5q-17 3 -25 4q-135 21 -198 64t-63 126q0 74 43 122.5t103.5 66.5t135.5 18q46 0 87 -6.5t79.5 -23t66.5 -41t46 -63.5t19 -88z" />
    <glyph glyph-name="T" unicode="T" horiz-adv-x="630" 
d="M278 0l-1 646h-279v68h633v-68h-280l1 -646h-74z" />
    <glyph glyph-name="U" unicode="U" horiz-adv-x="778" 
d="M707 714v-438q0 -45 -5.5 -81.5t-25.5 -78t-53 -69.5t-93.5 -46.5t-141.5 -18.5t-141.5 18.5t-93.5 46.5t-53 69.5t-25.5 78t-5.5 81.5v438h74v-438q0 -67 20 -113.5t56.5 -70t77 -33t91.5 -9.5t91.5 9.5t77 33t56.5 70t20 113.5v438h74z" />
    <glyph glyph-name="V" unicode="V" horiz-adv-x="685" 
d="M346 84l273 630h80l-315 -714h-80l-319 714h85z" />
    <glyph glyph-name="W" unicode="W" horiz-adv-x="1056" 
d="M786 98l200 616h80l-239 -714h-86l-216 610h-2l-211 -610h-86l-237 714h82l198 -616h2l211 616h91l211 -616h2z" />
    <glyph glyph-name="X" unicode="X" horiz-adv-x="667" 
d="M-8 0l289 362l-278 352h99l232 -294l239 294h92l-280 -348l290 -366h-98l-245 307l-245 -307h-95z" />
    <glyph glyph-name="Y" unicode="Y" horiz-adv-x="686" 
d="M306 0l-1 300l-320 414h95l262 -340l262 340h96l-321 -414l1 -300h-74z" />
    <glyph glyph-name="Z" unicode="Z" horiz-adv-x="648" 
d="M5 0l-1 68l530 578h-496v68h596v-68l-533 -578h541l1 -68h-638z" />
    <glyph glyph-name="bracketleft" unicode="[" horiz-adv-x="352" 
d="M107 -190v904h196v-56h-128v-792h128v-56h-196z" />
    <glyph glyph-name="backslash" unicode="\" horiz-adv-x="407" 
d="M347 -18l-345 750h56l345 -750h-56z" />
    <glyph glyph-name="bracketright" unicode="]" horiz-adv-x="352" 
d="M243 714v-904h-196v56h128v792h-128v56h196z" />
    <glyph glyph-name="asciicircum" unicode="^" horiz-adv-x="600" 
d="M499 239l-200 391l-200 -391h-56l231 453h50l231 -453h-56z" />
    <glyph glyph-name="underscore" unicode="_" horiz-adv-x="500" 
d="M0 -125v50h499v-50h-499z" />
    <glyph glyph-name="grave" unicode="`" 
d="M40 741l115 -142h-61l-144 142h90z" />
    <glyph glyph-name="a" unicode="a" horiz-adv-x="611" 
d="M120 360h-68q9 87 65 131.5t183 44.5t182.5 -38.5t55.5 -115.5v-272q0 -32 9.5 -45t31.5 -13q13 0 39 2v-50q-40 -8 -62 -8q-27 0 -44 8t-24.5 23.5t-9.5 28.5t-2 32h-2q-13 -19 -25.5 -32t-39.5 -32t-72.5 -29.5t-105.5 -10.5q-49 0 -92.5 13.5t-76.5 50.5t-33 92
q0 40 16.5 70t41 46.5t62 27t68 14t71.5 5.5q84 4 121 10.5t49 19t12 39.5q0 56 -39.5 79t-132.5 23q-90 0 -132 -26t-46 -88zM470 201v79q-22 -15 -65.5 -21.5t-165.5 -17.5q-68 -6 -102 -28.5t-34 -67.5q0 -105 150 -105q83 0 150 43t67 118z" />
    <glyph glyph-name="b" unicode="b" horiz-adv-x="667" 
d="M126 260q0 -99 61.5 -156.5t156.5 -57.5q105 0 157 63t52 151q0 97 -59.5 155.5t-149.5 58.5q-106 0 -162 -63t-56 -151zM57 0l-1 720h74v-304h2q27 52 84 86t128 34q138 0 210.5 -79.5t72.5 -196.5q0 -51 -15 -97.5t-46.5 -87.5t-88.5 -66t-133 -25q-84 0 -139.5 38.5
t-72.5 81.5h-2l1 -104h-74z" />
    <glyph glyph-name="c" unicode="c" horiz-adv-x="611" 
d="M511 186h74q-4 -23 -14 -47t-30.5 -53t-48.5 -51t-72 -36.5t-98 -14.5q-139 0 -216 75.5t-77 200.5q0 123 75.5 199.5t217.5 76.5q64 0 113.5 -18t78.5 -47.5t45.5 -59.5t21.5 -61h-74q-32 124 -185 124q-107 0 -163 -59.5t-56 -154.5q0 -98 57.5 -156t161.5 -58
q78 0 126 38t63 102z" />
    <glyph glyph-name="d" unicode="d" horiz-adv-x="667" 
d="M536 0l-1 104h-2q-21 -45 -74.5 -82.5t-137.5 -37.5q-76 0 -133 25t-88.5 66t-46.5 87.5t-15 97.5q0 117 72.5 196.5t210.5 79.5q71 0 128 -34t84 -86h2v304h74l1 -720h-74zM539 260q0 88 -56 151t-162 63q-90 0 -149.5 -58.5t-59.5 -155.5q0 -88 52 -151t157 -63
q95 0 156.5 57.5t61.5 156.5z" />
    <glyph glyph-name="e" unicode="e" horiz-adv-x="648" 
d="M527 166h74q-25 -79 -93 -130.5t-187 -51.5q-76 0 -133 25t-88.5 66t-46.5 87.5t-15 97.5q0 117 72.5 196.5t210.5 79.5q55 0 103 -13.5t92.5 -44.5t71 -91.5t26.5 -144.5h-502q0 -84 56.5 -140t152.5 -56q90 0 137.5 29t68.5 91zM112 298h428q-15 90 -74 133t-140 43
q-80 0 -141.5 -43.5t-72.5 -132.5z" />
    <glyph glyph-name="f" unicode="f" horiz-adv-x="315" 
d="M107 0l-1 464h-112v56h112v69q0 72 35.5 101.5t110.5 29.5q52 0 83 -4v-62q-31 4 -69 4q-50 0 -68 -16t-18 -61v-61h147v-56h-147l1 -464h-74z" />
    <glyph glyph-name="g" unicode="g" horiz-adv-x="667" 
d="M537 419v101h74v-500q0 -55 -17.5 -98t-45.5 -69.5t-67.5 -43t-78.5 -23t-83 -6.5q-67 0 -117.5 12.5t-77 30t-43.5 43.5t-21.5 43.5t-6.5 39.5h68q5 -27 12 -42.5t26.5 -34t60 -27.5t102.5 -9q104 0 159.5 48t55.5 141v93h-2q-65 -118 -229 -118q-52 0 -99 14.5
t-88.5 44.5t-65.5 84.5t-24 127.5q0 112 72.5 188.5t211.5 76.5q78 0 137.5 -29.5t84.5 -87.5h2zM539 271q0 87 -58.5 145t-163.5 58q-99 0 -156.5 -53.5t-57.5 -149.5q0 -108 60 -158.5t160 -50.5q95 0 155.5 56t60.5 153z" />
    <glyph glyph-name="h" unicode="h" horiz-adv-x="630" 
d="M57 0l-1 720h74v-302h2q17 46 75.5 82t139.5 36q122 0 173.5 -56.5t51.5 -157.5l1 -322h-74l-1 335q0 139 -157 139q-106 0 -158.5 -50t-52.5 -142l1 -282h-74z" />
    <glyph glyph-name="i" unicode="i" 
d="M54 610v110h74v-110h-74zM55 0l-1 520h74l1 -520h-74z" />
    <glyph glyph-name="j" unicode="j" 
d="M54 610v110h74v-110h-74zM-75 -217v62q16 -3 50 -3q46 0 62.5 18.5t16.5 60.5v599h74v-599q0 -141 -133 -141q-1 0 -70 3z" />
    <glyph glyph-name="k" unicode="k" horiz-adv-x="574" 
d="M57 0l-1 720h74v-453l317 253h110l-255 -197l275 -323h-98l-232 275l-117 -89l1 -186h-74z" />
    <glyph glyph-name="l" unicode="l" 
d="M55 0l-1 720h74l1 -720h-74z" />
    <glyph glyph-name="m" unicode="m" horiz-adv-x="1000" 
d="M869 0l-1 330q0 73 -37.5 108.5t-117.5 35.5q-85 0 -131 -45t-46 -122l1 -307h-74l-1 352q0 53 -38 87.5t-110 34.5q-82 0 -133 -47t-51 -134l1 -293h-74l-1 520h74v-96h2q63 112 206 112q81 0 126.5 -33.5t59.5 -80.5q20 44 76 79t128 35q106 0 160 -48.5t54 -132.5
l1 -355h-74z" />
    <glyph glyph-name="n" unicode="n" horiz-adv-x="630" 
d="M499 0l-1 335q0 139 -157 139q-106 0 -158.5 -50t-52.5 -142l1 -282h-74l-1 520h74v-102h2q17 46 75.5 82t139.5 36q122 0 173.5 -56.5t51.5 -157.5l1 -322h-74z" />
    <glyph glyph-name="o" unicode="o" horiz-adv-x="668" 
d="M38 260q0 117 76.5 196.5t218.5 79.5t218.5 -79.5t76.5 -196.5t-76.5 -196.5t-218.5 -79.5t-218.5 79.5t-76.5 196.5zM112 260q0 -95 59 -154.5t162 -59.5t162 59.5t59 154.5t-59 154.5t-162 59.5t-162 -59.5t-59 -154.5z" />
    <glyph glyph-name="p" unicode="p" horiz-adv-x="667" 
d="M126 260q0 -88 56 -151t162 -63q90 0 149.5 58.5t59.5 155.5q0 88 -52 151t-157 63q-95 0 -156.5 -57.5t-61.5 -156.5zM56 -202v722h74v-104h2q52 120 212 120q76 0 133 -25t88.5 -66t46.5 -87.5t15 -97.5q0 -117 -72.5 -196.5t-210.5 -79.5q-71 0 -128 34t-84 86h-2
v-306h-74z" />
    <glyph glyph-name="q" unicode="q" horiz-adv-x="667" 
d="M539 260q0 99 -61.5 156.5t-156.5 57.5q-105 0 -157 -63t-52 -151q0 -97 59.5 -155.5t149.5 -58.5q106 0 162 63t56 151zM535 416v104h74v-722h-74v306h-2q-27 -52 -84 -86t-128 -34q-138 0 -210.5 79.5t-72.5 196.5q0 50 16.5 97.5t49 88t87.5 65.5t124 25
q87 0 143.5 -38t74.5 -82h2z" />
    <glyph glyph-name="r" unicode="r" horiz-adv-x="370" 
d="M57 0l-1 520h74v-119h2q12 27 26 47.5t37 42t57.5 33.5t78.5 12q29 0 44 -4v-76q-35 6 -68 6q-71 0 -124 -48t-53 -149l1 -265h-74z" />
    <glyph glyph-name="s" unicode="s" horiz-adv-x="556" 
d="M511 366h-68q-14 61 -54.5 84.5t-124.5 23.5q-150 0 -150 -89q0 -39 36 -54.5t157 -31.5q126 -17 175.5 -47t49.5 -103q0 -79 -63 -122t-184 -43q-263 0 -263 179h68q10 -65 52.5 -91t142.5 -26q84 0 128.5 22t44.5 77q0 40 -40.5 59.5t-158.5 31.5q-121 12 -170 44.5
t-49 101.5q0 70 57 112t167 42q123 0 182 -43t65 -127z" />
    <glyph glyph-name="t" unicode="t" horiz-adv-x="352" 
d="M106 520v164h74v-164h147v-56h-147v-344q0 -36 15.5 -51t58.5 -15t73 6v-62q-42 -6 -81 -6q-82 0 -111 30.5t-29 98.5v343h-112v56h112z" />
    <glyph glyph-name="u" unicode="u" horiz-adv-x="630" 
d="M499 0l-1 102h-2q-17 -46 -75.5 -82t-139.5 -36q-122 0 -173.5 56.5t-51.5 157.5v322h74v-335q0 -139 157 -139q106 0 158.5 50t52.5 142v282h74l1 -520h-74z" />
    <glyph glyph-name="v" unicode="v" horiz-adv-x="556" 
d="M277 85l204 435h80l-243 -520h-80l-244 520h79z" />
    <glyph glyph-name="w" unicode="w" horiz-adv-x="889" 
d="M641 97l167 423h80l-210 -520h-80l-158 416l-154 -416h-80l-206 520h79l165 -426l157 426h80z" />
    <glyph glyph-name="x" unicode="x" horiz-adv-x="574" 
d="M-3 0l238 270l-222 250h96l176 -198l175 198h97l-225 -250l245 -270h-98l-194 216l-191 -216h-97z" />
    <glyph glyph-name="y" unicode="y" horiz-adv-x="556" 
d="M285 87l196 433h80l-282 -617q-28 -61 -59.5 -83t-92.5 -22h-36q-13 0 -35 2v62q32 -2 53 -2q41 0 63.5 13t39.5 51l34 72l-252 524h79z" />
    <glyph glyph-name="z" unicode="z" horiz-adv-x="556" 
d="M20 0l-1 62l395 396h-372v62h478v-62l-403 -396h418l1 -62h-516z" />
    <glyph glyph-name="braceleft" unicode="{" horiz-adv-x="352" 
d="M47 243v38q34 0 47 28.5t13 108.5v175q0 121 107 121h58v-38h-49q-25 0 -36.5 -17.5t-11.5 -65.5v-175q0 -71 -23 -109.5t-55 -45.5v-2q32 -7 55 -45.5t23 -109.5v-175q0 -48 11.5 -65.5t36.5 -17.5h49v-38h-58q-107 0 -107 121v175q0 80 -13 108.5t-47 28.5z" />
    <glyph glyph-name="bar" unicode="|" horiz-adv-x="222" 
d="M85 -18v750h50v-750h-50z" />
    <glyph glyph-name="braceright" unicode="}" horiz-adv-x="352" 
d="M78 -190v38h49q24 0 36 18t12 65v175q0 71 23 109.5t55 45.5v2q-32 7 -55 45.5t-23 109.5v175q0 47 -12 65t-36 18h-49v38h58q107 0 107 -121v-175q0 -80 13 -108.5t47 -28.5v-38q-34 0 -47 -28.5t-13 -108.5v-175q0 -121 -107 -121h-58z" />
    <glyph glyph-name="asciitilde" unicode="~" horiz-adv-x="600" 
d="M494 316l36 -36q-27 -41 -55 -63.5t-70 -22.5q-45 0 -102 33q-59 35 -115 35q-51 0 -84 -72l-36 36q42 86 125 86q38 0 111 -32q7 -3 21.5 -9.5t23 -10t20 -8t20.5 -6.5t17 -2q19 0 37 13t25.5 23t25.5 36z" />
    <glyph glyph-name="uni00A0" unicode="&#xa0;" horiz-adv-x="278" 
 />
    <glyph glyph-name="exclamdown" unicode="&#xa1;" horiz-adv-x="296" 
d="M107 -178v189l18 340h44l18 -340v-189h-80zM104 426v110h86v-110h-86z" />
    <glyph glyph-name="cent" unicode="&#xa2;" horiz-adv-x="668" 
d="M320 -124v109q-126 8 -195.5 82.5t-69.5 192.5q0 44 14 87.5t42.5 85.5t82.5 70t126 33v84h44v-84q59 -3 105.5 -22t74 -47.5t43 -57.5t20.5 -59h-74q-32 117 -169 124v-428q141 10 173 140h74q-4 -23 -13.5 -46.5t-28.5 -51t-45.5 -49.5t-68 -37.5t-91.5 -17.5v-108h-44
zM320 47v426q-95 -9 -143 -68.5t-48 -144.5q0 -91 49.5 -148t141.5 -65z" />
    <glyph glyph-name="sterling" unicode="&#xa3;" horiz-adv-x="668" 
d="M52 320v44h72q-48 80 -48 130q0 94 72 154t197 60q130 0 199 -61.5t69 -168.5h-74q0 87 -59.5 127.5t-140.5 40.5q-75 0 -132 -40t-57 -108q0 -25 10 -52.5t23 -51.5t15 -30h221v-44h-203q20 -43 20 -93q0 -38 -31.5 -87t-71.5 -76l2 -2q69 28 113 28q27 0 105 -19
t96 -19q64 0 147 65l25 -62q-19 -23 -70.5 -47t-101.5 -24q-37 0 -119 22t-111 22q-67 0 -139 -42l-35 57q50 35 86.5 85.5t36.5 102.5q0 25 -26 89h-90z" />
    <glyph glyph-name="currency" unicode="&#xa4;" horiz-adv-x="668" 
d="M135 346q0 -81 58.5 -139.5t139.5 -58.5t139.5 58.5t58.5 139.5t-58.5 139.5t-139.5 58.5t-139.5 -58.5t-58.5 -139.5zM85 136l54 56q-54 64 -54 154t54 154l-54 56l38 38l55 -55q67 55 155 55t155 -55l55 55l38 -38l-54 -56q54 -64 54 -154t-54 -154l54 -56l-38 -38
l-55 55q-67 -55 -155 -55t-155 55l-55 -55z" />
    <glyph glyph-name="yen" unicode="&#xa5;" horiz-adv-x="668" 
d="M296 194v96l-8 11h-198v50h160l-257 341h85l255 -340l255 340h86l-258 -341h160v-50h-198l-8 -11v-96h206v-50h-206l1 -144h-74l-1 144h-206v50h206z" />
    <glyph glyph-name="brokenbar" unicode="&#xa6;" horiz-adv-x="222" 
d="M85 457v275h50v-275h-50zM85 -18v275h50v-275h-50z" />
    <glyph glyph-name="section" unicode="&#xa7;" horiz-adv-x="667" 
d="M116 341q0 -23 9 -40t24 -29t46 -27t63 -28t87.5 -37.5t107.5 -50.5q25 0 60.5 26.5t35.5 73.5q0 19 -6.5 34.5t-22.5 29.5t-33.5 25.5t-50 26t-60.5 26.5t-76.5 32t-87.5 38q-25 -4 -60.5 -31.5t-35.5 -68.5zM96 17h74q3 -68 51.5 -98.5t121.5 -30.5q59 0 100 23.5
t41 68.5q0 42 -35.5 69t-116.5 62l-128 55q-80 34 -118 68t-38 89q0 24 5.5 45t16 35.5t21 25.5t24 18.5t22.5 12t19 8.5l11 3q-59 39 -59 101q0 69 50.5 114.5t160.5 45.5q103 0 166.5 -44.5t63.5 -136.5h-74q0 18 -6.5 36t-21.5 38t-48.5 32.5t-79.5 12.5
q-66 0 -101.5 -22t-35.5 -64q0 -40 38.5 -67t116.5 -58l131 -55q76 -32 112.5 -66.5t36.5 -97.5q0 -34 -11.5 -60t-34 -42t-36 -23t-37.5 -16q60 -42 60 -111q0 -67 -55 -114.5t-160 -47.5q-68 0 -116 15t-75 42.5t-40 60t-16 73.5z" />
    <glyph glyph-name="dieresis" unicode="&#xa8;" 
d="M167 615v110h74v-110h-74zM-58 615v110h73v-110h-73z" />
    <glyph glyph-name="copyright" unicode="&#xa9;" horiz-adv-x="800" 
d="M24 357q0 155 110 265t265 110t265 -110t110 -265t-110 -265t-265 -110t-265 110t-110 265zM545 280h56q-18 -73 -68.5 -117t-121.5 -44q-102 0 -164.5 68t-62.5 170q0 104 60 170.5t164 66.5q76 0 129 -41.5t64 -114.5h-56q-9 47 -45.5 76.5t-91.5 29.5
q-79 0 -123.5 -52.5t-44.5 -134.5q0 -78 46.5 -133t124.5 -55q54 0 90 31t44 80zM74 357q0 -138 94 -234.5t231 -96.5t231 96.5t94 235.5q0 137 -94 233.5t-231 96.5t-231 -96.5t-94 -234.5z" />
    <glyph glyph-name="ordfeminine" unicode="&#xaa;" horiz-adv-x="397" 
d="M401 432v-38q-36 -4 -46 -4q-32 0 -42 13.5t-10 37.5h-2q-9 -23 -44 -43t-107 -20q-51 0 -91 23.5t-40 70.5q0 52 43 75t133 27q66 2 85 9t19 26q0 30 -23.5 42.5t-82.5 12.5q-106 0 -110 -62h-50q6 53 42.5 79.5t119.5 26.5q82 0 118 -23t36 -70v-152q0 -20 6 -27.5
t21 -7.5q14 0 25 4zM299 513v39q-12 -8 -61 -15t-68 -7q-57 -4 -76 -16.5t-19 -38.5q0 -59 89 -59q54 0 94.5 25.5t40.5 71.5z" />
    <glyph glyph-name="guillemotleft" unicode="&#xab;" horiz-adv-x="500" 
d="M72 238v72l157 135v-77l-113 -94l113 -94v-77zM257 238v72l157 135v-77l-113 -94l113 -94v-77z" />
    <glyph glyph-name="logicalnot" unicode="&#xac;" horiz-adv-x="600" 
d="M502 108v217h-456v50h506v-267h-50z" />
    <glyph glyph-name="uni00AD" unicode="&#xad;" horiz-adv-x="444" 
d="M68 237v74h304v-74h-304z" />
    <glyph glyph-name="registered" unicode="&#xae;" horiz-adv-x="800" 
d="M309 536v-160h111q105 0 105 81q0 79 -105 79h-111zM535 134l-131 198h-95v-198h-50v446h171q145 0 145 -124q0 -103 -112 -124l134 -198h-62zM74 357q0 -138 94 -234.5t231 -96.5t231 96.5t94 235.5q0 137 -94 233.5t-231 96.5t-231 -96.5t-94 -234.5zM24 357
q0 155 110 265t265 110t265 -110t110 -265t-110 -265t-265 -110t-265 110t-110 265z" />
    <glyph glyph-name="macron" unicode="&#xaf;" 
d="M-102 642v56h385v-56h-385z" />
    <glyph glyph-name="degree" unicode="&#xb0;" horiz-adv-x="400" 
d="M100 565q0 -42 28.5 -70.5t70.5 -28.5t70.5 28.5t28.5 70.5t-28.5 70.5t-70.5 28.5t-70.5 -28.5t-28.5 -70.5zM56 565q0 60 41.5 101.5t101.5 41.5t101.5 -41.5t41.5 -101.5t-41.5 -101.5t-101.5 -41.5t-101.5 41.5t-41.5 101.5z" />
    <glyph glyph-name="plusminus" unicode="&#xb1;" horiz-adv-x="600" 
d="M47 0l-1 50h506l1 -50h-506zM274 324v182h50v-182h228v-50h-228v-182h-50v182h-228v50h228z" />
    <glyph glyph-name="twosuperior" unicode="&#xb2;" horiz-adv-x="434" 
d="M385 336v-50h-352q2 22 7.5 38t20.5 37.5t46 44t78 45.5q83 42 111 66t28 63q0 84 -107 84q-64 0 -91 -31t-27 -76h-56q0 151 174 151q85 0 124 -37.5t39 -90.5q0 -88 -105 -135q-100 -47 -133 -68t-41 -41h284z" />
    <glyph glyph-name="threesuperior" unicode="&#xb3;" horiz-adv-x="434" 
d="M185 484v44q8 -2 14 -2h18q52 0 79 15t27 52q0 34 -28.5 52.5t-72.5 18.5q-61 0 -90.5 -26t-29.5 -70h-56q2 62 46 101t130 39q66 0 111.5 -28t45.5 -87q0 -31 -22 -55.5t-62 -29.5v-2q44 -2 73 -30t29 -74q0 -67 -48.5 -97.5t-120.5 -30.5q-96 0 -144.5 34.5
t-48.5 110.5h56q0 -101 140 -101q55 0 82.5 25t27.5 57q0 22 -9.5 37.5t-22.5 24t-36.5 13.5t-41 6.5t-46.5 2.5z" />
    <glyph glyph-name="acute" unicode="&#xb4;" 
d="M27 599l115 142h91l-145 -142h-61z" />
    <glyph glyph-name="mu" unicode="&#xb5;" horiz-adv-x="630" 
d="M499 0l-2 102h-2q-17 -46 -75.5 -82t-139.5 -36q-103 0 -151 50v-236h-73l-1 722h74v-335q0 -73 44 -106t113 -33q106 0 158.5 50t52.5 142v282h74l2 -520h-74z" />
    <glyph glyph-name="paragraph" unicode="&#xb6;" horiz-adv-x="600" 
d="M248 -156v484q-87 0 -147 55.5t-60 134.5q0 95 58.5 145.5t164.5 50.5h217v-870h-56v826h-121v-826h-56z" />
    <glyph glyph-name="periodcentered" unicode="&#xb7;" horiz-adv-x="278" 
d="M71 312q0 27 19.5 46.5t46.5 19.5t46.5 -19.5t19.5 -46.5t-19.5 -46.5t-46.5 -19.5t-46.5 19.5t-19.5 46.5z" />
    <glyph glyph-name="cedilla" unicode="&#xb8;" 
d="M23 -84l57 84h41l-42 -59l2 -2q17 5 40 5q39 0 62.5 -19t23.5 -51t-35 -54t-91 -22t-97 17l12 35q46 -14 81 -14q68 0 68 38q0 18 -16 27t-36 9q-34 0 -53 -11z" />
    <glyph glyph-name="onesuperior" unicode="&#xb9;" horiz-adv-x="289" 
d="M145 286v306h-133v38h32q55 0 78.5 14.5t34.5 63.5h44v-422h-56z" />
    <glyph glyph-name="ordmasculine" unicode="&#xba;" horiz-adv-x="434" 
d="M24 544q0 69 49.5 116.5t142.5 47.5t142.5 -47.5t49.5 -116.5q0 -71 -49.5 -118.5t-142.5 -47.5t-142.5 47.5t-49.5 118.5zM80 544q0 -57 36.5 -89.5t99.5 -32.5t99.5 32.5t36.5 89.5q0 55 -36.5 87.5t-99.5 32.5t-99.5 -32.5t-36.5 -87.5z" />
    <glyph glyph-name="guillemotright" unicode="&#xbb;" horiz-adv-x="500" 
d="M382 274l-113 94v77l157 -135v-72l-157 -135v77zM197 274l-113 94v77l157 -135v-72l-157 -135v77z" />
    <glyph glyph-name="onequarter" unicode="&#xbc;" horiz-adv-x="1000" 
d="M145 286v306h-133v38h32q55 0 78.5 14.5t34.5 63.5h44v-422h-56zM175 -16l425 724h62l-425 -724h-62zM816 0l-1 99h-238v44l244 279h50v-279h80v-44h-80l1 -99h-56zM815 143v205h-2l-180 -205h182z" />
    <glyph glyph-name="onehalf" unicode="&#xbd;" horiz-adv-x="1000" 
d="M951 50l1 -50h-352q2 22 7.5 38t19.5 38t45 44t79 45q83 42 111 66t28 63q0 84 -107 84q-64 0 -91 -30.5t-27 -73.5h-56q0 148 174 148q85 0 124 -37.5t39 -90.5q0 -88 -105 -135q-100 -47 -133 -68t-41 -41h284zM145 286v306h-133v38h32q55 0 78.5 14.5t34.5 63.5h44
v-422h-56zM175 -16l425 724h62l-425 -724h-62z" />
    <glyph glyph-name="threequarters" unicode="&#xbe;" horiz-adv-x="1000" 
d="M185 484v44q8 -2 14 -2h18q52 0 79 15t27 52q0 34 -28.5 52.5t-72.5 18.5q-61 0 -90.5 -26t-29.5 -70h-56q2 62 46 101t130 39q66 0 111.5 -28t45.5 -87q0 -31 -22 -55.5t-62 -29.5v-2q44 -2 73 -30t29 -74q0 -67 -48.5 -97.5t-120.5 -30.5q-96 0 -144.5 34.5
t-48.5 110.5h56q0 -101 140 -101q55 0 82.5 25t27.5 57q0 22 -9.5 37.5t-22.5 24t-36.5 13.5t-41 6.5t-46.5 2.5zM277 -16l425 724h62l-425 -724h-62zM816 0l-1 99h-238v44l244 279h50v-279h80v-44h-80l1 -99h-56zM815 143v205h-2l-180 -205h182z" />
    <glyph glyph-name="questiondown" unicode="&#xbf;" horiz-adv-x="648" 
d="M385 536v-110h-86v110h86zM519 45h74q0 -104 -67.5 -172.5t-191.5 -68.5q-108 0 -183.5 52.5t-75.5 153.5q0 65 30.5 103.5t112.5 95.5q63 44 76.5 67.5t13.5 74.5h68v-44.5t-7.5 -34.5t-10.5 -25.5t-25.5 -27t-34 -29.5t-53.5 -41q-27 -20 -38 -29t-28 -27.5t-23.5 -38
t-6.5 -44.5q0 -63 52.5 -100.5t132.5 -37.5q93 0 138 46.5t47 126.5z" />
    <glyph glyph-name="Agrave" unicode="&#xc0;" horiz-adv-x="722" 
d="M642 0l-96 217h-376l-96 -217h-80l323 714h86l325 -714h-86zM516 285l-157 355l-159 -355h316zM282 911l115 -142h-61l-144 142h90z" />
    <glyph glyph-name="Aacute" unicode="&#xc1;" horiz-adv-x="722" 
d="M642 0l-96 217h-376l-96 -217h-80l323 714h86l325 -714h-86zM516 285l-157 355l-159 -355h316zM320 769l115 142h91l-145 -142h-61z" />
    <glyph glyph-name="Acircumflex" unicode="&#xc2;" horiz-adv-x="722" 
d="M642 0l-96 217h-376l-96 -217h-80l323 714h86l325 -714h-86zM516 285l-157 355l-159 -355h316zM179 769l142 142h80l143 -142h-75l-108 101l-107 -101h-75z" />
    <glyph glyph-name="Atilde" unicode="&#xc3;" horiz-adv-x="722" 
d="M642 0l-96 217h-376l-96 -217h-80l323 714h86l325 -714h-86zM516 285l-157 355l-159 -355h316zM500 894h44q-8 -43 -27 -70q-27 -38 -76 -38q-36 0 -90 26t-79 26q-46 0 -53 -52h-44q21 108 102 108q36 0 90 -26t79 -26q47 0 54 52z" />
    <glyph glyph-name="Adieresis" unicode="&#xc4;" horiz-adv-x="722" 
d="M642 0l-96 217h-376l-96 -217h-80l323 714h86l325 -714h-86zM516 285l-157 355l-159 -355h316zM435 785v110h74v-110h-74zM210 785v110h73v-110h-73z" />
    <glyph glyph-name="Aring" unicode="&#xc5;" horiz-adv-x="722" 
d="M642 0l-96 217h-376l-96 -217h-80l323 714h86l325 -714h-86zM516 285l-157 355l-159 -355h316zM287 864q0 -30 21 -51t51 -21t51 21t21 51t-21 51t-51 21t-51 -21t-21 -51zM249 864q0 45 32 76t78 31q45 0 77.5 -30t32.5 -77t-32.5 -77t-77.5 -30q-47 0 -78.5 30
t-31.5 77z" />
    <glyph glyph-name="AE" unicode="&#xc6;" horiz-adv-x="1093" 
d="M-23 0l457 714h622v-68h-455v-242h433v-68h-433v-268h460l1 -68h-534l-1 232h-317l-147 -232h-86zM527 300v346h-53l-222 -346h275z" />
    <glyph glyph-name="Ccedilla" unicode="&#xc7;" horiz-adv-x="815" 
d="M699 272h74q-12 -124 -108 -207t-245 -83h-4l-29 -41l2 -2q17 5 40 5q39 0 62.5 -19t23.5 -51t-35 -54t-91 -22t-97 17l12 35q46 -14 81 -14q68 0 68 38q0 18 -16 27t-36 9q-34 0 -53 -11l-17 17l46 68q-63 5 -115 24q-106 41 -164 131t-58 218q0 52 12.5 102.5t41 100.5
t71 87.5t108.5 61t147 23.5q61 0 117 -14.5t106 -44t83 -81t41 -119.5h-74q-15 96 -91.5 143.5t-181.5 47.5q-138 0 -219 -78t-81 -229q0 -62 17 -115.5t51.5 -97.5t94 -69t137.5 -25q240 0 279 222z" />
    <glyph glyph-name="Egrave" unicode="&#xc8;" horiz-adv-x="685" 
d="M78 0l-1 714h568v-68h-494v-242h476v-68h-476v-268h502l1 -68h-576zM288 911l115 -142h-61l-144 142h90z" />
    <glyph glyph-name="Eacute" unicode="&#xc9;" horiz-adv-x="685" 
d="M78 0l-1 714h568v-68h-494v-242h476v-68h-476v-268h502l1 -68h-576zM338 769l115 142h91l-145 -142h-61z" />
    <glyph glyph-name="Ecircumflex" unicode="&#xca;" horiz-adv-x="685" 
d="M78 0l-1 714h568v-68h-494v-242h476v-68h-476v-268h502l1 -68h-576zM181 769l142 142h80l143 -142h-75l-108 101l-107 -101h-75z" />
    <glyph glyph-name="Edieresis" unicode="&#xcb;" horiz-adv-x="685" 
d="M78 0l-1 714h568v-68h-494v-242h476v-68h-476v-268h502l1 -68h-576zM443 785v110h74v-110h-74zM218 785v110h73v-110h-73z" />
    <glyph glyph-name="Igrave" unicode="&#xcc;" horiz-adv-x="222" 
d="M74 0l-1 714h74l1 -714h-74zM29 911l115 -142h-61l-144 142h90z" />
    <glyph glyph-name="Iacute" unicode="&#xcd;" horiz-adv-x="222" 
d="M74 0l-1 714h74l1 -714h-74zM73 769l115 142h91l-145 -142h-61z" />
    <glyph glyph-name="Icircumflex" unicode="&#xce;" horiz-adv-x="222" 
d="M74 0l-1 714h74l1 -714h-74zM-73 769l142 142h80l143 -142h-75l-108 101l-107 -101h-75z" />
    <glyph glyph-name="Idieresis" unicode="&#xcf;" horiz-adv-x="222" 
d="M74 0l-1 714h74l1 -714h-74zM187 785v110h74v-110h-74zM-38 785v110h73v-110h-73z" />
    <glyph glyph-name="Eth" unicode="&#xd0;" horiz-adv-x="778" 
d="M139 646v-243h258v-56h-258v-279h270q107 0 173 68t66 221q0 289 -239 289h-270zM66 0l-1 347h-65v56h65v311h347q154 0 235 -93.5t81 -263.5q0 -157 -79.5 -257t-224.5 -100h-358z" />
    <glyph glyph-name="Ntilde" unicode="&#xd1;" horiz-adv-x="796" 
d="M66 0l-1 714h89l499 -610h2v610h74l1 -714h-86l-503 610h-2l1 -610h-74zM545 894h44q-8 -43 -27 -70q-27 -38 -76 -38q-36 0 -90 26t-79 26q-46 0 -53 -52h-44q21 108 102 108q36 0 90 -26t79 -26q47 0 54 52z" />
    <glyph glyph-name="Ograve" unicode="&#xd2;" horiz-adv-x="852" 
d="M117 357q0 -78 25.5 -138.5t69.5 -96.5t98 -54t115 -18t115 18t98 54t69.5 96.5t25.5 138.5t-25.5 138.5t-69.5 96.5t-98 54t-115 18t-115 -18t-98 -54t-69.5 -96.5t-25.5 -138.5zM37 357q0 91 32 164t86.5 118.5t123 69t146.5 23.5t146.5 -23.5t123 -69t86.5 -118.5
t32 -164t-32 -164t-86.5 -118.5t-123 -69t-146.5 -23.5t-146.5 23.5t-123 69t-86.5 118.5t-32 164zM368 911l115 -142h-61l-144 142h90z" />
    <glyph glyph-name="Oacute" unicode="&#xd3;" horiz-adv-x="852" 
d="M117 357q0 -78 25.5 -138.5t69.5 -96.5t98 -54t115 -18t115 18t98 54t69.5 96.5t25.5 138.5t-25.5 138.5t-69.5 96.5t-98 54t-115 18t-115 -18t-98 -54t-69.5 -96.5t-25.5 -138.5zM37 357q0 91 32 164t86.5 118.5t123 69t146.5 23.5t146.5 -23.5t123 -69t86.5 -118.5
t32 -164t-32 -164t-86.5 -118.5t-123 -69t-146.5 -23.5t-146.5 23.5t-123 69t-86.5 118.5t-32 164zM386 769l115 142h91l-145 -142h-61z" />
    <glyph glyph-name="Ocircumflex" unicode="&#xd4;" horiz-adv-x="852" 
d="M117 357q0 -78 25.5 -138.5t69.5 -96.5t98 -54t115 -18t115 18t98 54t69.5 96.5t25.5 138.5t-25.5 138.5t-69.5 96.5t-98 54t-115 18t-115 -18t-98 -54t-69.5 -96.5t-25.5 -138.5zM37 357q0 91 32 164t86.5 118.5t123 69t146.5 23.5t146.5 -23.5t123 -69t86.5 -118.5
t32 -164t-32 -164t-86.5 -118.5t-123 -69t-146.5 -23.5t-146.5 23.5t-123 69t-86.5 118.5t-32 164zM247 769l142 142h80l143 -142h-75l-108 101l-107 -101h-75z" />
    <glyph glyph-name="Otilde" unicode="&#xd5;" horiz-adv-x="852" 
d="M117 357q0 -78 25.5 -138.5t69.5 -96.5t98 -54t115 -18t115 18t98 54t69.5 96.5t25.5 138.5t-25.5 138.5t-69.5 96.5t-98 54t-115 18t-115 -18t-98 -54t-69.5 -96.5t-25.5 -138.5zM37 357q0 91 32 164t86.5 118.5t123 69t146.5 23.5t146.5 -23.5t123 -69t86.5 -118.5
t32 -164t-32 -164t-86.5 -118.5t-123 -69t-146.5 -23.5t-146.5 23.5t-123 69t-86.5 118.5t-32 164zM568 894h44q-8 -43 -27 -70q-27 -38 -76 -38q-36 0 -90 26t-79 26q-46 0 -53 -52h-44q21 108 102 108q36 0 90 -26t79 -26q47 0 54 52z" />
    <glyph glyph-name="Odieresis" unicode="&#xd6;" horiz-adv-x="852" 
d="M117 357q0 -78 25.5 -138.5t69.5 -96.5t98 -54t115 -18t115 18t98 54t69.5 96.5t25.5 138.5t-25.5 138.5t-69.5 96.5t-98 54t-115 18t-115 -18t-98 -54t-69.5 -96.5t-25.5 -138.5zM37 357q0 91 32 164t86.5 118.5t123 69t146.5 23.5t146.5 -23.5t123 -69t86.5 -118.5
t32 -164t-32 -164t-86.5 -118.5t-123 -69t-146.5 -23.5t-146.5 23.5t-123 69t-86.5 118.5t-32 164zM505 785v110h74v-110h-74zM280 785v110h73v-110h-73z" />
    <glyph glyph-name="multiply" unicode="&#xd7;" horiz-adv-x="600" 
d="M298 288l191 191l36 -36l-191 -190l191 -190l-36 -36l-191 191l-189 -191l-36 36l190 190l-190 190l36 36z" />
    <glyph glyph-name="Oslash" unicode="&#xd8;" horiz-adv-x="852" 
d="M37 12l92 89q-92 103 -92 256q0 91 32 164t86.5 118.5t123 69t146.5 23.5q161 0 266 -89l93 89l29 -30l-92 -88q92 -98 92 -257q0 -91 -32 -164t-86.5 -118.5t-123 -69t-146.5 -23.5q-158 0 -266 90l-93 -90zM666 561l-454 -438q80 -73 213 -73q61 0 115 18t98 54
t69.5 96.5t25.5 138.5q0 126 -67 204zM183 153l454 438q-82 73 -212 73q-61 0 -115 -18t-98 -54t-69.5 -96.5t-25.5 -138.5q0 -125 66 -204z" />
    <glyph glyph-name="Ugrave" unicode="&#xd9;" horiz-adv-x="778" 
d="M707 714v-438q0 -45 -5.5 -81.5t-25.5 -78t-53 -69.5t-93.5 -46.5t-141.5 -18.5t-141.5 18.5t-93.5 46.5t-53 69.5t-25.5 78t-5.5 81.5v438h74v-438q0 -67 20 -113.5t56.5 -70t77 -33t91.5 -9.5t91.5 9.5t77 33t56.5 70t20 113.5v438h74zM324 911l115 -142h-61l-144 142
h90z" />
    <glyph glyph-name="Uacute" unicode="&#xda;" horiz-adv-x="778" 
d="M707 714v-438q0 -45 -5.5 -81.5t-25.5 -78t-53 -69.5t-93.5 -46.5t-141.5 -18.5t-141.5 18.5t-93.5 46.5t-53 69.5t-25.5 78t-5.5 81.5v438h74v-438q0 -67 20 -113.5t56.5 -70t77 -33t91.5 -9.5t91.5 9.5t77 33t56.5 70t20 113.5v438h74zM357 769l115 142h91l-145 -142
h-61z" />
    <glyph glyph-name="Ucircumflex" unicode="&#xdb;" horiz-adv-x="778" 
d="M707 714v-438q0 -45 -5.5 -81.5t-25.5 -78t-53 -69.5t-93.5 -46.5t-141.5 -18.5t-141.5 18.5t-93.5 46.5t-53 69.5t-25.5 78t-5.5 81.5v438h74v-438q0 -67 20 -113.5t56.5 -70t77 -33t91.5 -9.5t91.5 9.5t77 33t56.5 70t20 113.5v438h74zM206 769l142 142h80l143 -142
h-75l-108 101l-107 -101h-75z" />
    <glyph glyph-name="Udieresis" unicode="&#xdc;" horiz-adv-x="778" 
d="M707 714v-438q0 -45 -5.5 -81.5t-25.5 -78t-53 -69.5t-93.5 -46.5t-141.5 -18.5t-141.5 18.5t-93.5 46.5t-53 69.5t-25.5 78t-5.5 81.5v438h74v-438q0 -67 20 -113.5t56.5 -70t77 -33t91.5 -9.5t91.5 9.5t77 33t56.5 70t20 113.5v438h74zM470 785v110h74v-110h-74z
M245 785v110h73v-110h-73z" />
    <glyph glyph-name="Yacute" unicode="&#xdd;" horiz-adv-x="686" 
d="M306 0l-1 300l-320 414h95l262 -340l262 340h96l-321 -414l1 -300h-74zM308 769l115 142h91l-145 -142h-61z" />
    <glyph glyph-name="Thorn" unicode="&#xde;" horiz-adv-x="704" 
d="M78 0l-1 714h74v-130h311q92 0 153.5 -50t61.5 -156q0 -102 -64 -155t-184 -53h-278l1 -170h-74zM151 516v-278h286q88 0 124 36t36 104q0 76 -38 107t-107 31h-301z" />
    <glyph glyph-name="germandbls" unicode="&#xdf;" horiz-adv-x="630" 
d="M265 359v65q33 -3 41 -3q167 0 167 118q0 61 -48 90t-119 29q-99 0 -137.5 -40t-38.5 -115l1 -503h-74l-1 506q0 105 59.5 159.5t190.5 54.5q69 0 119 -17t75 -45.5t36 -57.5t11 -60q0 -57 -33 -93t-87 -48v-2q15 -2 30 -6.5t39.5 -18.5t42 -34t31 -56.5t13.5 -83.5
q0 -97 -67 -155.5t-183 -58.5q-23 0 -76 8v61q40 -7 64 -7q92 0 140 45t48 117q0 81 -52.5 116t-154.5 35h-37z" />
    <glyph glyph-name="agrave" unicode="&#xe0;" horiz-adv-x="611" 
d="M120 360h-68q9 87 65 131.5t183 44.5t182.5 -38.5t55.5 -115.5v-272q0 -32 9.5 -45t31.5 -13q13 0 39 2v-50q-40 -8 -62 -8q-27 0 -44 8t-24.5 23.5t-9.5 28.5t-2 32h-2q-13 -19 -25.5 -32t-39.5 -32t-72.5 -29.5t-105.5 -10.5q-49 0 -92.5 13.5t-76.5 50.5t-33 92
q0 40 16.5 70t41 46.5t62 27t68 14t71.5 5.5q84 4 121 10.5t49 19t12 39.5q0 56 -39.5 79t-132.5 23q-90 0 -132 -26t-46 -88zM470 201v79q-22 -15 -65.5 -21.5t-165.5 -17.5q-68 -6 -102 -28.5t-34 -67.5q0 -105 150 -105q83 0 150 43t67 118zM260 741l115 -142h-61
l-144 142h90z" />
    <glyph glyph-name="aacute" unicode="&#xe1;" horiz-adv-x="611" 
d="M120 360h-68q9 87 65 131.5t183 44.5t182.5 -38.5t55.5 -115.5v-272q0 -32 9.5 -45t31.5 -13q13 0 39 2v-50q-40 -8 -62 -8q-27 0 -44 8t-24.5 23.5t-9.5 28.5t-2 32h-2q-13 -19 -25.5 -32t-39.5 -32t-72.5 -29.5t-105.5 -10.5q-49 0 -92.5 13.5t-76.5 50.5t-33 92
q0 40 16.5 70t41 46.5t62 27t68 14t71.5 5.5q84 4 121 10.5t49 19t12 39.5q0 56 -39.5 79t-132.5 23q-90 0 -132 -26t-46 -88zM470 201v79q-22 -15 -65.5 -21.5t-165.5 -17.5q-68 -6 -102 -28.5t-34 -67.5q0 -105 150 -105q83 0 150 43t67 118zM273 599l115 142h91
l-145 -142h-61z" />
    <glyph glyph-name="acircumflex" unicode="&#xe2;" horiz-adv-x="611" 
d="M120 360h-68q9 87 65 131.5t183 44.5t182.5 -38.5t55.5 -115.5v-272q0 -32 9.5 -45t31.5 -13q13 0 39 2v-50q-40 -8 -62 -8q-27 0 -44 8t-24.5 23.5t-9.5 28.5t-2 32h-2q-13 -19 -25.5 -32t-39.5 -32t-72.5 -29.5t-105.5 -10.5q-49 0 -92.5 13.5t-76.5 50.5t-33 92
q0 40 16.5 70t41 46.5t62 27t68 14t71.5 5.5q84 4 121 10.5t49 19t12 39.5q0 56 -39.5 79t-132.5 23q-90 0 -132 -26t-46 -88zM470 201v79q-22 -15 -65.5 -21.5t-165.5 -17.5q-68 -6 -102 -28.5t-34 -67.5q0 -105 150 -105q83 0 150 43t67 118zM128 599l142 142h80l143 -142
h-75l-108 101l-107 -101h-75z" />
    <glyph glyph-name="atilde" unicode="&#xe3;" horiz-adv-x="611" 
d="M120 360h-68q9 87 65 131.5t183 44.5t182.5 -38.5t55.5 -115.5v-272q0 -32 9.5 -45t31.5 -13q13 0 39 2v-50q-40 -8 -62 -8q-27 0 -44 8t-24.5 23.5t-9.5 28.5t-2 32h-2q-13 -19 -25.5 -32t-39.5 -32t-72.5 -29.5t-105.5 -10.5q-49 0 -92.5 13.5t-76.5 50.5t-33 92
q0 40 16.5 70t41 46.5t62 27t68 14t71.5 5.5q84 4 121 10.5t49 19t12 39.5q0 56 -39.5 79t-132.5 23q-90 0 -132 -26t-46 -88zM470 201v79q-22 -15 -65.5 -21.5t-165.5 -17.5q-68 -6 -102 -28.5t-34 -67.5q0 -105 150 -105q83 0 150 43t67 118zM449 724h44q-8 -43 -27 -70
q-27 -38 -76 -38q-36 0 -90 26t-79 26q-46 0 -53 -52h-44q21 108 102 108q36 0 90 -26t79 -26q47 0 54 52z" />
    <glyph glyph-name="adieresis" unicode="&#xe4;" horiz-adv-x="611" 
d="M120 360h-68q9 87 65 131.5t183 44.5t182.5 -38.5t55.5 -115.5v-272q0 -32 9.5 -45t31.5 -13q13 0 39 2v-50q-40 -8 -62 -8q-27 0 -44 8t-24.5 23.5t-9.5 28.5t-2 32h-2q-13 -19 -25.5 -32t-39.5 -32t-72.5 -29.5t-105.5 -10.5q-49 0 -92.5 13.5t-76.5 50.5t-33 92
q0 40 16.5 70t41 46.5t62 27t68 14t71.5 5.5q84 4 121 10.5t49 19t12 39.5q0 56 -39.5 79t-132.5 23q-90 0 -132 -26t-46 -88zM470 201v79q-22 -15 -65.5 -21.5t-165.5 -17.5q-68 -6 -102 -28.5t-34 -67.5q0 -105 150 -105q83 0 150 43t67 118zM385 615v110h74v-110h-74z
M160 615v110h73v-110h-73z" />
    <glyph glyph-name="aring" unicode="&#xe5;" horiz-adv-x="611" 
d="M120 360h-68q9 87 65 131.5t183 44.5t182.5 -38.5t55.5 -115.5v-272q0 -32 9.5 -45t31.5 -13q13 0 39 2v-50q-40 -8 -62 -8q-27 0 -44 8t-24.5 23.5t-9.5 28.5t-2 32h-2q-13 -19 -25.5 -32t-39.5 -32t-72.5 -29.5t-105.5 -10.5q-49 0 -92.5 13.5t-76.5 50.5t-33 92
q0 40 16.5 70t41 46.5t62 27t68 14t71.5 5.5q84 4 121 10.5t49 19t12 39.5q0 56 -39.5 79t-132.5 23q-90 0 -132 -26t-46 -88zM470 201v79q-22 -15 -65.5 -21.5t-165.5 -17.5q-68 -6 -102 -28.5t-34 -67.5q0 -105 150 -105q83 0 150 43t67 118zM238 700q0 -30 21 -51t51 -21
t51 21t21 51t-21 51t-51 21t-51 -21t-21 -51zM200 700q0 45 32 76t78 31q45 0 77.5 -30t32.5 -77t-32.5 -77t-77.5 -30q-47 0 -78.5 30t-31.5 77z" />
    <glyph glyph-name="ae" unicode="&#xe6;" horiz-adv-x="1074" 
d="M476 201v79q-22 -15 -65.5 -21.5t-165.5 -17.5q-68 -6 -102 -28.5t-34 -67.5q0 -105 150 -105q83 0 150 43t67 118zM544 298h419q-15 90 -74 133t-140 43q-92 0 -144.5 -47t-60.5 -129zM1037 242h-493q0 -88 55.5 -142t149.5 -54q87 0 134 29.5t66 90.5h74
q-25 -79 -91.5 -130.5t-182.5 -51.5q-98 0 -160.5 41t-82.5 99q-24 -56 -87 -98t-182 -42q-49 0 -92.5 13.5t-76.5 50.5t-33 92q0 40 16.5 70t41 46.5t62 27t68 14t71.5 5.5q84 4 121 10.5t49 19t12 39.5q0 56 -39.5 79t-132.5 23q-90 0 -132 -26t-46 -88h-68q9 87 65 131.5
t183 44.5q108 0 156 -26t71 -84q68 110 211 110q55 0 103 -13.5t92.5 -44.5t71 -91.5t26.5 -144.5z" />
    <glyph glyph-name="ccedilla" unicode="&#xe7;" horiz-adv-x="611" 
d="M511 186h74q-4 -23 -14 -47t-30.5 -53t-48.5 -51t-72 -36.5t-98 -14.5h-2l-30 -43l2 -2q17 5 40 5q39 0 62.5 -19t23.5 -51t-35 -54t-91 -22t-97 17l12 35q45 -14 81 -14q68 0 68 38q0 18 -16 27t-36 9q-34 0 -53 -11l-17 17l47 70q-46 4 -85 18q-80 30 -123.5 97
t-43.5 159q0 123 75.5 199.5t217.5 76.5q64 0 113.5 -18t78.5 -47.5t45.5 -59.5t21.5 -61h-74q-32 124 -185 124q-107 0 -163 -59.5t-56 -154.5q0 -98 57.5 -156t161.5 -58q78 0 126 38t63 102z" />
    <glyph glyph-name="egrave" unicode="&#xe8;" horiz-adv-x="648" 
d="M527 166h74q-25 -79 -93 -130.5t-187 -51.5q-76 0 -133 25t-88.5 66t-46.5 87.5t-15 97.5q0 117 72.5 196.5t210.5 79.5q55 0 103 -13.5t92.5 -44.5t71 -91.5t26.5 -144.5h-502q0 -84 56.5 -140t152.5 -56q90 0 137.5 29t68.5 91zM112 298h428q-15 90 -74 133t-140 43
q-80 0 -141.5 -43.5t-72.5 -132.5zM263 741l115 -142h-61l-144 142h90z" />
    <glyph glyph-name="eacute" unicode="&#xe9;" horiz-adv-x="648" 
d="M527 166h74q-25 -79 -93 -130.5t-187 -51.5q-76 0 -133 25t-88.5 66t-46.5 87.5t-15 97.5q0 117 72.5 196.5t210.5 79.5q55 0 103 -13.5t92.5 -44.5t71 -91.5t26.5 -144.5h-502q0 -84 56.5 -140t152.5 -56q90 0 137.5 29t68.5 91zM112 298h428q-15 90 -74 133t-140 43
q-80 0 -141.5 -43.5t-72.5 -132.5zM293 599l115 142h91l-145 -142h-61z" />
    <glyph glyph-name="ecircumflex" unicode="&#xea;" horiz-adv-x="648" 
d="M527 166h74q-25 -79 -93 -130.5t-187 -51.5q-76 0 -133 25t-88.5 66t-46.5 87.5t-15 97.5q0 117 72.5 196.5t210.5 79.5q55 0 103 -13.5t92.5 -44.5t71 -91.5t26.5 -144.5h-502q0 -84 56.5 -140t152.5 -56q90 0 137.5 29t68.5 91zM112 298h428q-15 90 -74 133t-140 43
q-80 0 -141.5 -43.5t-72.5 -132.5zM143 599l142 142h80l143 -142h-75l-108 101l-107 -101h-75z" />
    <glyph glyph-name="edieresis" unicode="&#xeb;" horiz-adv-x="648" 
d="M527 166h74q-25 -79 -93 -130.5t-187 -51.5q-76 0 -133 25t-88.5 66t-46.5 87.5t-15 97.5q0 117 72.5 196.5t210.5 79.5q55 0 103 -13.5t92.5 -44.5t71 -91.5t26.5 -144.5h-502q0 -84 56.5 -140t152.5 -56q90 0 137.5 29t68.5 91zM112 298h428q-15 90 -74 133t-140 43
q-80 0 -141.5 -43.5t-72.5 -132.5zM404 615v110h74v-110h-74zM179 615v110h73v-110h-73z" />
    <glyph glyph-name="igrave" unicode="&#xec;" 
d="M55 0l-1 520h74l1 -520h-74zM15 741l115 -142h-61l-144 142h90z" />
    <glyph glyph-name="iacute" unicode="&#xed;" 
d="M55 0l-1 520h74l1 -520h-74zM56 599l115 142h91l-145 -142h-61z" />
    <glyph glyph-name="icircumflex" unicode="&#xee;" 
d="M55 0l-1 520h74l1 -520h-74zM-90 599l142 142h80l143 -142h-75l-108 101l-107 -101h-75z" />
    <glyph glyph-name="idieresis" unicode="&#xef;" 
d="M55 0l-1 520h74l1 -520h-74zM167 615v110h74v-110h-74zM-58 615v110h73v-110h-73z" />
    <glyph glyph-name="eth" unicode="&#xf0;" horiz-adv-x="668" 
d="M38 260q0 117 76.5 196.5t218.5 79.5q119 0 184 -87h3q-76 138 -194 196l-123 -57l-32 26l113 52q-46 26 -117 48l51 40q72 -21 135 -57l120 55l30 -27l-113 -52q113 -65 175.5 -183t62.5 -221q0 -31 -6.5 -64.5t-26 -74.5t-50.5 -72t-86 -52.5t-126 -21.5
q-142 0 -218.5 79.5t-76.5 196.5zM554 260q0 95 -59 154.5t-162 59.5t-162 -59.5t-59 -154.5t59 -154.5t162 -59.5t162 59.5t59 154.5z" />
    <glyph glyph-name="ntilde" unicode="&#xf1;" horiz-adv-x="630" 
d="M499 0l-1 335q0 139 -157 139q-106 0 -158.5 -50t-52.5 -142l1 -282h-74l-1 520h74v-102h2q17 46 75.5 82t139.5 36q122 0 173.5 -56.5t51.5 -157.5l1 -322h-74zM457 724h44q-8 -43 -27 -70q-27 -38 -76 -38q-36 0 -90 26t-79 26q-46 0 -53 -52h-44q21 108 102 108
q36 0 90 -26t79 -26q47 0 54 52z" />
    <glyph glyph-name="ograve" unicode="&#xf2;" horiz-adv-x="668" 
d="M38 260q0 117 76.5 196.5t218.5 79.5t218.5 -79.5t76.5 -196.5t-76.5 -196.5t-218.5 -79.5t-218.5 79.5t-76.5 196.5zM112 260q0 -95 59 -154.5t162 -59.5t162 59.5t59 154.5t-59 154.5t-162 59.5t-162 -59.5t-59 -154.5zM266 741l115 -142h-61l-144 142h90z" />
    <glyph glyph-name="oacute" unicode="&#xf3;" horiz-adv-x="668" 
d="M38 260q0 117 76.5 196.5t218.5 79.5t218.5 -79.5t76.5 -196.5t-76.5 -196.5t-218.5 -79.5t-218.5 79.5t-76.5 196.5zM112 260q0 -95 59 -154.5t162 -59.5t162 59.5t59 154.5t-59 154.5t-162 59.5t-162 -59.5t-59 -154.5zM299 599l115 142h91l-145 -142h-61z" />
    <glyph glyph-name="ocircumflex" unicode="&#xf4;" horiz-adv-x="668" 
d="M38 260q0 117 76.5 196.5t218.5 79.5t218.5 -79.5t76.5 -196.5t-76.5 -196.5t-218.5 -79.5t-218.5 79.5t-76.5 196.5zM112 260q0 -95 59 -154.5t162 -59.5t162 59.5t59 154.5t-59 154.5t-162 59.5t-162 -59.5t-59 -154.5zM151 599l142 142h80l143 -142h-75l-108 101
l-107 -101h-75z" />
    <glyph glyph-name="otilde" unicode="&#xf5;" horiz-adv-x="668" 
d="M38 260q0 117 76.5 196.5t218.5 79.5t218.5 -79.5t76.5 -196.5t-76.5 -196.5t-218.5 -79.5t-218.5 79.5t-76.5 196.5zM112 260q0 -95 59 -154.5t162 -59.5t162 59.5t59 154.5t-59 154.5t-162 59.5t-162 -59.5t-59 -154.5zM474 724h44q-8 -43 -27 -70q-27 -38 -76 -38
q-36 0 -90 26t-79 26q-46 0 -53 -52h-44q21 108 102 108q36 0 90 -26t79 -26q47 0 54 52z" />
    <glyph glyph-name="odieresis" unicode="&#xf6;" horiz-adv-x="668" 
d="M38 260q0 117 76.5 196.5t218.5 79.5t218.5 -79.5t76.5 -196.5t-76.5 -196.5t-218.5 -79.5t-218.5 79.5t-76.5 196.5zM112 260q0 -95 59 -154.5t162 -59.5t162 59.5t59 154.5t-59 154.5t-162 59.5t-162 -59.5t-59 -154.5zM409 615v110h74v-110h-74zM184 615v110h73v-110
h-73z" />
    <glyph glyph-name="divide" unicode="&#xf7;" horiz-adv-x="600" 
d="M244 47q0 23 16 39t39 16t39 -16t16 -39t-16 -39t-39 -16t-39 16t-16 39zM244 459q0 23 16 39t39 16t39 -16t16 -39t-16 -39t-39 -16t-39 16t-16 39zM46 228v50h506v-50h-506z" />
    <glyph glyph-name="oslash" unicode="&#xf8;" horiz-adv-x="668" 
d="M508 399l-326 -303q56 -50 151 -50q103 0 162 59.5t59 154.5q0 84 -46 139zM38 10l68 63q-68 74 -68 187q0 117 76.5 196.5t218.5 79.5q126 0 202 -65l69 65l24 -26l-68 -63q68 -74 68 -187q0 -117 -76.5 -196.5t-218.5 -79.5q-124 0 -202 65l-69 -65zM158 121l326 303
q-58 50 -151 50q-103 0 -162 -59.5t-59 -154.5q0 -83 46 -139z" />
    <glyph glyph-name="ugrave" unicode="&#xf9;" horiz-adv-x="630" 
d="M499 0l-1 102h-2q-17 -46 -75.5 -82t-139.5 -36q-122 0 -173.5 56.5t-51.5 157.5v322h74v-335q0 -139 157 -139q106 0 158.5 50t52.5 142v282h74l1 -520h-74zM245 741l115 -142h-61l-144 142h90z" />
    <glyph glyph-name="uacute" unicode="&#xfa;" horiz-adv-x="630" 
d="M499 0l-1 102h-2q-17 -46 -75.5 -82t-139.5 -36q-122 0 -173.5 56.5t-51.5 157.5v322h74v-335q0 -139 157 -139q106 0 158.5 50t52.5 142v282h74l1 -520h-74zM280 599l115 142h91l-145 -142h-61z" />
    <glyph glyph-name="ucircumflex" unicode="&#xfb;" horiz-adv-x="630" 
d="M499 0l-1 102h-2q-17 -46 -75.5 -82t-139.5 -36q-122 0 -173.5 56.5t-51.5 157.5v322h74v-335q0 -139 157 -139q106 0 158.5 50t52.5 142v282h74l1 -520h-74zM130 599l142 142h80l143 -142h-75l-108 101l-107 -101h-75z" />
    <glyph glyph-name="udieresis" unicode="&#xfc;" horiz-adv-x="630" 
d="M499 0l-1 102h-2q-17 -46 -75.5 -82t-139.5 -36q-122 0 -173.5 56.5t-51.5 157.5v322h74v-335q0 -139 157 -139q106 0 158.5 50t52.5 142v282h74l1 -520h-74zM388 615v110h74v-110h-74zM163 615v110h73v-110h-73z" />
    <glyph glyph-name="yacute" unicode="&#xfd;" horiz-adv-x="556" 
d="M285 87l196 433h80l-282 -617q-28 -61 -59.5 -83t-92.5 -22h-36q-13 0 -35 2v62q32 -2 53 -2q41 0 63.5 13t39.5 51l34 72l-252 524h79zM253 599l115 142h91l-145 -142h-61z" />
    <glyph glyph-name="thorn" unicode="&#xfe;" horiz-adv-x="667" 
d="M126 260q0 -88 56 -151t162 -63q90 0 149.5 58.5t59.5 155.5q0 88 -52 151t-157 63q-95 0 -156.5 -57.5t-61.5 -156.5zM56 -202v922h74v-304h2q13 23 24.5 38t36 37t63 33.5t88.5 11.5q76 0 133 -25t88.5 -66t46.5 -87.5t15 -97.5q0 -117 -72.5 -196.5t-210.5 -79.5
q-71 0 -128 34t-84 86h-2v-306h-74z" />
    <glyph glyph-name="ydieresis" unicode="&#xff;" horiz-adv-x="556" 
d="M285 87l196 433h80l-282 -617q-28 -61 -59.5 -83t-92.5 -22h-36q-13 0 -35 2v62q32 -2 53 -2q41 0 63.5 13t39.5 51l34 72l-252 524h79zM362 615v110h74v-110h-74zM137 615v110h73v-110h-73z" />
    <glyph glyph-name="Amacron" unicode="&#x100;" horiz-adv-x="722" 
d="M642 0l-96 217h-376l-96 -217h-80l323 714h86l325 -714h-86zM516 285l-157 355l-159 -355h316zM170 812v56h385v-56h-385z" />
    <glyph glyph-name="amacron" unicode="&#x101;" horiz-adv-x="611" 
d="M120 360h-68q9 87 65 131.5t183 44.5t182.5 -38.5t55.5 -115.5v-272q0 -32 9.5 -45t31.5 -13q13 0 39 2v-50q-40 -8 -62 -8q-27 0 -44 8t-24.5 23.5t-9.5 28.5t-2 32h-2q-13 -19 -25.5 -32t-39.5 -32t-72.5 -29.5t-105.5 -10.5q-49 0 -92.5 13.5t-76.5 50.5t-33 92
q0 40 16.5 70t41 46.5t62 27t68 14t71.5 5.5q84 4 121 10.5t49 19t12 39.5q0 56 -39.5 79t-132.5 23q-90 0 -132 -26t-46 -88zM470 201v79q-22 -15 -65.5 -21.5t-165.5 -17.5q-68 -6 -102 -28.5t-34 -67.5q0 -105 150 -105q83 0 150 43t67 118zM115 642v56h385v-56h-385z
" />
    <glyph glyph-name="Abreve" unicode="&#x102;" horiz-adv-x="722" 
d="M642 0l-96 217h-376l-96 -217h-80l323 714h86l325 -714h-86zM516 285l-157 355l-159 -355h316zM196 906h50q3 -41 31 -58.5t83 -17.5q110 0 115 76h50q-12 -132 -165 -132q-152 0 -164 132z" />
    <glyph glyph-name="abreve" unicode="&#x103;" horiz-adv-x="611" 
d="M120 360h-68q9 87 65 131.5t183 44.5t182.5 -38.5t55.5 -115.5v-272q0 -32 9.5 -45t31.5 -13q13 0 39 2v-50q-40 -8 -62 -8q-27 0 -44 8t-24.5 23.5t-9.5 28.5t-2 32h-2q-13 -19 -25.5 -32t-39.5 -32t-72.5 -29.5t-105.5 -10.5q-49 0 -92.5 13.5t-76.5 50.5t-33 92
q0 40 16.5 70t41 46.5t62 27t68 14t71.5 5.5q84 4 121 10.5t49 19t12 39.5q0 56 -39.5 79t-132.5 23q-90 0 -132 -26t-46 -88zM470 201v79q-22 -15 -65.5 -21.5t-165.5 -17.5q-68 -6 -102 -28.5t-34 -67.5q0 -105 150 -105q83 0 150 43t67 118zM139 736h50q3 -41 31 -58.5
t83 -17.5q110 0 115 76h50q-12 -132 -165 -132q-152 0 -164 132z" />
    <glyph glyph-name="Aogonek" unicode="&#x104;" horiz-adv-x="722" 
d="M729 -144l13 -34q-48 -24 -105 -24q-100 0 -100 77q0 24 11 44q12 19 30 36q19 17 64 45l-96 217h-376l-96 -217h-80l323 714h86l325 -714h-32q-54 -40 -66 -53q-32 -34 -32 -66q0 -21 14 -32t36 -11q39 0 81 18zM516 285l-157 355l-159 -355h316z" />
    <glyph glyph-name="aogonek" unicode="&#x105;" horiz-adv-x="611" 
d="M120 360h-68q9 87 65 131.5t183 44.5t182.5 -38.5t55.5 -115.5v-272q0 -32 9.5 -45t31.5 -13q13 0 39 2v-50l-28 -5q-16 -3 -34 -3h-5q-48 -36 -60 -49q-32 -34 -32 -66q0 -21 14 -32t36 -11q39 0 81 18l13 -34q-48 -24 -105 -24q-100 0 -100 77q0 41 41 80q18 17 72 50
q-15 7 -23 21q-12 21 -12 62h-2q-13 -19 -25.5 -32t-39.5 -32t-72.5 -29.5t-105.5 -10.5q-49 0 -92.5 13.5t-76.5 50.5t-33 92q0 40 16.5 70t41 46.5t62 27t68 14t71.5 5.5q84 4 121 10.5t49 19t12 39.5q0 56 -39.5 79t-132.5 23q-90 0 -132 -26t-46 -88zM470 201v79
q-22 -15 -65.5 -21.5t-165.5 -17.5q-68 -6 -102 -28.5t-34 -67.5q0 -105 150 -105q83 0 150 43t67 118z" />
    <glyph glyph-name="Cacute" unicode="&#x106;" horiz-adv-x="815" 
d="M699 272h74q-12 -124 -108 -207t-245 -83q-175 0 -277.5 101.5t-102.5 273.5q0 52 12.5 102.5t41 100.5t71 87.5t108.5 61t147 23.5q61 0 117 -14.5t106 -44t83 -81t41 -119.5h-74q-15 96 -91.5 143.5t-181.5 47.5q-138 0 -219 -78t-81 -229q0 -62 17 -115.5t51.5 -97.5
t94 -69t137.5 -25q240 0 279 222zM387 769l115 142h91l-145 -142h-61z" />
    <glyph glyph-name="cacute" unicode="&#x107;" horiz-adv-x="611" 
d="M511 186h74q-4 -23 -14 -47t-30.5 -53t-48.5 -51t-72 -36.5t-98 -14.5q-139 0 -216 75.5t-77 200.5q0 123 75.5 199.5t217.5 76.5q64 0 113.5 -18t78.5 -47.5t45.5 -59.5t21.5 -61h-74q-32 124 -185 124q-107 0 -163 -59.5t-56 -154.5q0 -98 57.5 -156t161.5 -58
q78 0 126 38t63 102zM288 599l115 142h91l-145 -142h-61z" />
    <glyph glyph-name="Ccircumflex" unicode="&#x108;" horiz-adv-x="815" 
d="M699 272h74q-12 -124 -108 -207t-245 -83q-175 0 -277.5 101.5t-102.5 273.5q0 52 12.5 102.5t41 100.5t71 87.5t108.5 61t147 23.5q61 0 117 -14.5t106 -44t83 -81t41 -119.5h-74q-15 96 -91.5 143.5t-181.5 47.5q-138 0 -219 -78t-81 -229q0 -62 17 -115.5t51.5 -97.5
t94 -69t137.5 -25q240 0 279 222zM244 769l142 142h80l143 -142h-75l-108 101l-107 -101h-75z" />
    <glyph glyph-name="ccircumflex" unicode="&#x109;" horiz-adv-x="611" 
d="M511 186h74q-4 -23 -14 -47t-30.5 -53t-48.5 -51t-72 -36.5t-98 -14.5q-139 0 -216 75.5t-77 200.5q0 123 75.5 199.5t217.5 76.5q64 0 113.5 -18t78.5 -47.5t45.5 -59.5t21.5 -61h-74q-32 124 -185 124q-107 0 -163 -59.5t-56 -154.5q0 -98 57.5 -156t161.5 -58
q78 0 126 38t63 102zM142 599l142 142h80l143 -142h-75l-108 101l-107 -101h-75z" />
    <glyph glyph-name="Cdotaccent" unicode="&#x10a;" horiz-adv-x="815" 
d="M699 272h74q-12 -124 -108 -207t-245 -83q-175 0 -277.5 101.5t-102.5 273.5q0 52 12.5 102.5t41 100.5t71 87.5t108.5 61t147 23.5q61 0 117 -14.5t106 -44t83 -81t41 -119.5h-74q-15 96 -91.5 143.5t-181.5 47.5q-138 0 -219 -78t-81 -229q0 -62 17 -115.5t51.5 -97.5
t94 -69t137.5 -25q240 0 279 222zM382 785v110h74v-110h-74z" />
    <glyph glyph-name="cdotaccent" unicode="&#x10b;" horiz-adv-x="611" 
d="M511 186h74q-4 -23 -14 -47t-30.5 -53t-48.5 -51t-72 -36.5t-98 -14.5q-139 0 -216 75.5t-77 200.5q0 123 75.5 199.5t217.5 76.5q64 0 113.5 -18t78.5 -47.5t45.5 -59.5t21.5 -61h-74q-32 124 -185 124q-107 0 -163 -59.5t-56 -154.5q0 -98 57.5 -156t161.5 -58
q78 0 126 38t63 102zM283 615v110h74v-110h-74z" />
    <glyph glyph-name="Ccaron" unicode="&#x10c;" horiz-adv-x="815" 
d="M699 272h74q-12 -124 -108 -207t-245 -83q-175 0 -277.5 101.5t-102.5 273.5q0 52 12.5 102.5t41 100.5t71 87.5t108.5 61t147 23.5q61 0 117 -14.5t106 -44t83 -81t41 -119.5h-74q-15 96 -91.5 143.5t-181.5 47.5q-138 0 -219 -78t-81 -229q0 -62 17 -115.5t51.5 -97.5
t94 -69t137.5 -25q240 0 279 222zM601 911l-143 -142h-80l-142 142h75l107 -101l108 101h75z" />
    <glyph glyph-name="ccaron" unicode="&#x10d;" horiz-adv-x="611" 
d="M511 186h74q-4 -23 -14 -47t-30.5 -53t-48.5 -51t-72 -36.5t-98 -14.5q-139 0 -216 75.5t-77 200.5q0 123 75.5 199.5t217.5 76.5q64 0 113.5 -18t78.5 -47.5t45.5 -59.5t21.5 -61h-74q-32 124 -185 124q-107 0 -163 -59.5t-56 -154.5q0 -98 57.5 -156t161.5 -58
q78 0 126 38t63 102zM497 741l-143 -142h-80l-142 142h75l107 -101l108 101h75z" />
    <glyph glyph-name="Dcaron" unicode="&#x10e;" horiz-adv-x="778" 
d="M139 646v-578h270q107 0 173 68t66 221q0 289 -239 289h-270zM66 0l-1 714h347q154 0 235 -93.5t81 -263.5q0 -157 -79.5 -257t-224.5 -100h-358zM528 911l-143 -142h-80l-142 142h75l107 -101l108 101h75z" />
    <glyph glyph-name="dcaron" unicode="&#x10f;" horiz-adv-x="744" 
d="M536 0l-1 104h-2q-21 -45 -74.5 -82.5t-137.5 -37.5q-76 0 -133 25t-88.5 66t-46.5 87.5t-15 97.5q0 117 72.5 196.5t210.5 79.5q71 0 128 -34t84 -86h2v304h74l1 -720h-74zM539 260q0 88 -56 151t-162 63q-90 0 -149.5 -58.5t-59.5 -155.5q0 -88 52 -151t157 -63
q95 0 156.5 57.5t61.5 156.5zM670 578l25 142h83l-57 -142h-51z" />
    <glyph glyph-name="Dcroat" unicode="&#x110;" horiz-adv-x="778" 
d="M139 646v-243h258v-56h-258v-279h270q107 0 173 68t66 221q0 289 -239 289h-270zM66 0l-1 347h-65v56h65v311h347q154 0 235 -93.5t81 -263.5q0 -157 -79.5 -257t-224.5 -100h-358z" />
    <glyph glyph-name="dcroat" unicode="&#x111;" horiz-adv-x="727" 
d="M536 0l-1 104h-2q-21 -45 -74.5 -82.5t-137.5 -37.5q-76 0 -133 25t-88.5 66t-46.5 87.5t-15 97.5q0 117 72.5 196.5t210.5 79.5q71 0 128 -34t84 -86h2v168h-187v56h187v80h74v-80h100v-56h-100l1 -584h-74zM539 260q0 88 -56 151t-162 63q-90 0 -149.5 -58.5
t-59.5 -155.5q0 -88 52 -151t157 -63q95 0 156.5 57.5t61.5 156.5z" />
    <glyph glyph-name="Emacron" unicode="&#x112;" horiz-adv-x="685" 
d="M78 0l-1 714h568v-68h-494v-242h476v-68h-476v-268h502l1 -68h-576zM171 812v56h385v-56h-385z" />
    <glyph glyph-name="emacron" unicode="&#x113;" horiz-adv-x="648" 
d="M527 166h74q-25 -79 -93 -130.5t-187 -51.5q-76 0 -133 25t-88.5 66t-46.5 87.5t-15 97.5q0 117 72.5 196.5t210.5 79.5q55 0 103 -13.5t92.5 -44.5t71 -91.5t26.5 -144.5h-502q0 -84 56.5 -140t152.5 -56q90 0 137.5 29t68.5 91zM112 298h428q-15 90 -74 133t-140 43
q-80 0 -141.5 -43.5t-72.5 -132.5zM143 642v56h385v-56h-385z" />
    <glyph glyph-name="Ebreve" unicode="&#x114;" horiz-adv-x="685" 
d="M78 0l-1 714h568v-68h-494v-242h476v-68h-476v-268h502l1 -68h-576zM200 906h50q3 -41 31 -58.5t83 -17.5q110 0 115 76h50q-12 -132 -165 -132q-152 0 -164 132z" />
    <glyph glyph-name="ebreve" unicode="&#x115;" horiz-adv-x="648" 
d="M527 166h74q-25 -79 -93 -130.5t-187 -51.5q-76 0 -133 25t-88.5 66t-46.5 87.5t-15 97.5q0 117 72.5 196.5t210.5 79.5q55 0 103 -13.5t92.5 -44.5t71 -91.5t26.5 -144.5h-502q0 -84 56.5 -140t152.5 -56q90 0 137.5 29t68.5 91zM112 298h428q-15 90 -74 133t-140 43
q-80 0 -141.5 -43.5t-72.5 -132.5zM163 736h50q3 -41 31 -58.5t83 -17.5q110 0 115 76h50q-12 -132 -165 -132q-152 0 -164 132z" />
    <glyph glyph-name="Edotaccent" unicode="&#x116;" horiz-adv-x="685" 
d="M78 0l-1 714h568v-68h-494v-242h476v-68h-476v-268h502l1 -68h-576zM324 785v110h74v-110h-74z" />
    <glyph glyph-name="edotaccent" unicode="&#x117;" horiz-adv-x="648" 
d="M527 166h74q-25 -79 -93 -130.5t-187 -51.5q-76 0 -133 25t-88.5 66t-46.5 87.5t-15 97.5q0 117 72.5 196.5t210.5 79.5q55 0 103 -13.5t92.5 -44.5t71 -91.5t26.5 -144.5h-502q0 -84 56.5 -140t152.5 -56q90 0 137.5 29t68.5 91zM112 298h428q-15 90 -74 133t-140 43
q-80 0 -141.5 -43.5t-72.5 -132.5zM292 615v110h74v-110h-74z" />
    <glyph glyph-name="Eogonek" unicode="&#x118;" horiz-adv-x="685" 
d="M641 -144l13 -34q-48 -24 -105 -24q-100 0 -100 77q0 24 11 44q12 19 30 36q19 17 64 45h-476l-1 714h568v-68h-494v-242h476v-68h-476v-268h502l1 -68h-46q-54 -40 -66 -53q-32 -34 -32 -66q0 -21 14 -32t36 -11q39 0 81 18z" />
    <glyph glyph-name="eogonek" unicode="&#x119;" horiz-adv-x="648" 
d="M414 -144l13 -34q-48 -24 -105 -24q-100 0 -100 77q0 41 41 80q12 11 39 30q-69 2 -115 24q-77 37 -113 104t-36 147q0 117 72.5 196.5t210.5 79.5q55 0 103 -13.5t92.5 -44.5t71 -91.5t26.5 -144.5h-502q0 -84 56.5 -140t152.5 -56q90 0 137.5 29t68.5 91h74
q-40 -126 -168 -166q-35 -11 -72 -14q-33 -24 -46 -39q-32 -34 -32 -66q0 -21 14 -32t36 -11q39 0 81 18zM112 298h428q-15 90 -74 133t-140 43q-80 0 -141.5 -43.5t-72.5 -132.5z" />
    <glyph glyph-name="Ecaron" unicode="&#x11a;" horiz-adv-x="685" 
d="M78 0l-1 714h568v-68h-494v-242h476v-68h-476v-268h502l1 -68h-576zM546 911l-143 -142h-80l-142 142h75l107 -101l108 101h75z" />
    <glyph glyph-name="ecaron" unicode="&#x11b;" horiz-adv-x="648" 
d="M527 166h74q-25 -79 -93 -130.5t-187 -51.5q-76 0 -133 25t-88.5 66t-46.5 87.5t-15 97.5q0 117 72.5 196.5t210.5 79.5q55 0 103 -13.5t92.5 -44.5t71 -91.5t26.5 -144.5h-502q0 -84 56.5 -140t152.5 -56q90 0 137.5 29t68.5 91zM112 298h428q-15 90 -74 133t-140 43
q-80 0 -141.5 -43.5t-72.5 -132.5zM510 741l-143 -142h-80l-142 142h75l107 -101l108 101h75z" />
    <glyph glyph-name="Gcircumflex" unicode="&#x11c;" horiz-adv-x="852" 
d="M729 0l-11 135h-2q-56 -80 -125 -116.5t-172 -36.5q-178 0 -276 102t-98 273q0 165 104 270t278 105q144 0 237 -70t108 -174h-80q-22 87 -93 131.5t-172 44.5q-144 0 -223 -82t-79 -225q0 -146 73.5 -226.5t214.5 -80.5q263 0 304 250h-262v68h330l1 -368h-57zM245 769
l142 142h80l143 -142h-75l-108 101l-107 -101h-75z" />
    <glyph glyph-name="gcircumflex" unicode="&#x11d;" horiz-adv-x="667" 
d="M537 419v101h74v-500q0 -55 -17.5 -98t-45.5 -69.5t-67.5 -43t-78.5 -23t-83 -6.5q-67 0 -117.5 12.5t-77 30t-43.5 43.5t-21.5 43.5t-6.5 39.5h68q5 -27 12 -42.5t26.5 -34t60 -27.5t102.5 -9q104 0 159.5 48t55.5 141v93h-2q-65 -118 -229 -118q-52 0 -99 14.5
t-88.5 44.5t-65.5 84.5t-24 127.5q0 112 72.5 188.5t211.5 76.5q78 0 137.5 -29.5t84.5 -87.5h2zM539 271q0 87 -58.5 145t-163.5 58q-99 0 -156.5 -53.5t-57.5 -149.5q0 -108 60 -158.5t160 -50.5q95 0 155.5 56t60.5 153zM160 599l142 142h80l143 -142h-75l-108 101
l-107 -101h-75z" />
    <glyph glyph-name="Gbreve" unicode="&#x11e;" horiz-adv-x="852" 
d="M729 0l-11 135h-2q-56 -80 -125 -116.5t-172 -36.5q-178 0 -276 102t-98 273q0 165 104 270t278 105q144 0 237 -70t108 -174h-80q-22 87 -93 131.5t-172 44.5q-144 0 -223 -82t-79 -225q0 -146 73.5 -226.5t214.5 -80.5q263 0 304 250h-262v68h330l1 -368h-57zM265 906
h50q3 -41 31 -58.5t83 -17.5q110 0 115 76h50q-12 -132 -165 -132q-152 0 -164 132z" />
    <glyph glyph-name="gbreve" unicode="&#x11f;" horiz-adv-x="667" 
d="M537 419v101h74v-500q0 -55 -17.5 -98t-45.5 -69.5t-67.5 -43t-78.5 -23t-83 -6.5q-67 0 -117.5 12.5t-77 30t-43.5 43.5t-21.5 43.5t-6.5 39.5h68q5 -27 12 -42.5t26.5 -34t60 -27.5t102.5 -9q104 0 159.5 48t55.5 141v93h-2q-65 -118 -229 -118q-52 0 -99 14.5
t-88.5 44.5t-65.5 84.5t-24 127.5q0 112 72.5 188.5t211.5 76.5q78 0 137.5 -29.5t84.5 -87.5h2zM539 271q0 87 -58.5 145t-163.5 58q-99 0 -156.5 -53.5t-57.5 -149.5q0 -108 60 -158.5t160 -50.5q95 0 155.5 56t60.5 153zM177 736h50q3 -41 31 -58.5t83 -17.5
q110 0 115 76h50q-12 -132 -165 -132q-152 0 -164 132z" />
    <glyph glyph-name="Gdotaccent" unicode="&#x120;" horiz-adv-x="852" 
d="M729 0l-11 135h-2q-56 -80 -125 -116.5t-172 -36.5q-178 0 -276 102t-98 273q0 165 104 270t278 105q144 0 237 -70t108 -174h-80q-22 87 -93 131.5t-172 44.5q-144 0 -223 -82t-79 -225q0 -146 73.5 -226.5t214.5 -80.5q263 0 304 250h-262v68h330l1 -368h-57zM388 785
v110h74v-110h-74z" />
    <glyph glyph-name="gdotaccent" unicode="&#x121;" horiz-adv-x="667" 
d="M537 419v101h74v-500q0 -55 -17.5 -98t-45.5 -69.5t-67.5 -43t-78.5 -23t-83 -6.5q-67 0 -117.5 12.5t-77 30t-43.5 43.5t-21.5 43.5t-6.5 39.5h68q5 -27 12 -42.5t26.5 -34t60 -27.5t102.5 -9q104 0 159.5 48t55.5 141v93h-2q-65 -118 -229 -118q-52 0 -99 14.5
t-88.5 44.5t-65.5 84.5t-24 127.5q0 112 72.5 188.5t211.5 76.5q78 0 137.5 -29.5t84.5 -87.5h2zM539 271q0 87 -58.5 145t-163.5 58q-99 0 -156.5 -53.5t-57.5 -149.5q0 -108 60 -158.5t160 -50.5q95 0 155.5 56t60.5 153zM291 615v110h74v-110h-74z" />
    <glyph glyph-name="Gcommaaccent" unicode="&#x122;" horiz-adv-x="852" 
d="M729 0l-11 135h-2q-56 -80 -125 -116.5t-172 -36.5q-178 0 -276 102t-98 273q0 165 104 270t278 105q144 0 237 -70t108 -174h-80q-22 87 -93 131.5t-172 44.5q-144 0 -223 -82t-79 -225q0 -146 73.5 -226.5t214.5 -80.5q263 0 304 250h-262v68h330l1 -368h-57zM382 -150
v100h74v-91q0 -73 -80 -79v31q33 8 34 39h-28z" />
    <glyph glyph-name="gcommaaccent" unicode="&#x123;" horiz-adv-x="667" 
d="M537 419v101h74v-500q0 -55 -17.5 -98t-45.5 -69.5t-67.5 -43t-78.5 -23t-83 -6.5q-67 0 -117.5 12.5t-77 30t-43.5 43.5t-21.5 43.5t-6.5 39.5h68q5 -27 12 -42.5t26.5 -34t60 -27.5t102.5 -9q104 0 159.5 48t55.5 141v93h-2q-65 -118 -229 -118q-52 0 -99 14.5
t-88.5 44.5t-65.5 84.5t-24 127.5q0 112 72.5 188.5t211.5 76.5q78 0 137.5 -29.5t84.5 -87.5h2zM539 271q0 87 -58.5 145t-163.5 58q-99 0 -156.5 -53.5t-57.5 -149.5q0 -108 60 -158.5t160 -50.5q95 0 155.5 56t60.5 153zM364 720v-100h-74v91q0 73 80 79v-31
q-33 -8 -34 -39h28z" />
    <glyph glyph-name="Hcircumflex" unicode="&#x124;" horiz-adv-x="796" 
d="M66 0l-1 714h74v-302h516v302h74l1 -714h-74l-1 344h-516l1 -344h-74zM215 769l142 142h80l143 -142h-75l-108 101l-107 -101h-75z" />
    <glyph glyph-name="hcircumflex" unicode="&#x125;" horiz-adv-x="630" 
d="M57 0l-1 720h74v-302h2q17 46 75.5 82t139.5 36q122 0 173.5 -56.5t51.5 -157.5l1 -322h-74l-1 335q0 139 -157 139q-106 0 -158.5 -50t-52.5 -142l1 -282h-74zM138 769l142 142h80l143 -142h-75l-108 101l-107 -101h-75z" />
    <glyph glyph-name="Hbar" unicode="&#x126;" horiz-adv-x="796" 
d="M66 0l-1 714h74v-166h516v166h74l1 -714h-74l-1 334h-516l1 -334h-74zM139 402h516v90h-516v-90z" />
    <glyph glyph-name="hbar" unicode="&#x127;" horiz-adv-x="690" 
d="M16 584v56h100v80h74v-80h171v-56h-171v-166h2q17 46 75.5 82t139.5 36q122 0 173.5 -56.5t51.5 -157.5l1 -322h-74l-1 335q0 139 -157 139q-106 0 -158.5 -50t-52.5 -142l1 -282h-74l-1 584h-100z" />
    <glyph glyph-name="Itilde" unicode="&#x128;" horiz-adv-x="222" 
d="M74 0l-1 714h74l1 -714h-74zM251 894h44q-8 -43 -27 -70q-27 -38 -76 -38q-36 0 -90 26t-79 26q-46 0 -53 -52h-44q21 108 102 108q36 0 90 -26t79 -26q47 0 54 52z" />
    <glyph glyph-name="itilde" unicode="&#x129;" 
d="M55 0l-1 520h74l1 -520h-74zM233 724h44q-8 -43 -27 -70q-27 -38 -76 -38q-36 0 -90 26t-79 26q-46 0 -53 -52h-44q21 108 102 108q36 0 90 -26t79 -26q47 0 54 52z" />
    <glyph glyph-name="Imacron" unicode="&#x12a;" horiz-adv-x="222" 
d="M74 0l-1 714h74l1 -714h-74zM-82 812v56h385v-56h-385z" />
    <glyph glyph-name="imacron" unicode="&#x12b;" 
d="M55 0l-1 520h74l1 -520h-74zM-100 642v56h385v-56h-385z" />
    <glyph glyph-name="Iogonek" unicode="&#x12e;" horiz-adv-x="222" 
d="M179 -144l12 -34q-46 -24 -99 -24q-95 0 -95 77q0 24 11 44q12 20 29.5 36.5t58.5 44.5h-22l-1 714h74l1 -714q-52 -39 -63 -53q-30 -33 -30 -66q0 -21 13 -32t34 -11q37 0 77 18z" />
    <glyph glyph-name="iogonek" unicode="&#x12f;" 
d="M158 -144l12 -34q-42 -24 -95 -24q-45 0 -67.5 20.5t-22.5 56.5q0 24 11 44q12 22 26 36t58 45h-25l-1 520h74l1 -520q-49 -39 -60 -53q-29 -36 -29 -66q0 -21 12.5 -32t32.5 -11q35 0 73 18zM54 610v110h74v-110h-74z" />
    <glyph glyph-name="Idotaccent" unicode="&#x130;" horiz-adv-x="222" 
d="M74 0l-1 714h74l1 -714h-74zM73 785v110h74v-110h-74z" />
    <glyph glyph-name="dotlessi" unicode="&#x131;" 
d="M55 0l-1 520h74l1 -520h-74z" />
    <glyph glyph-name="Jcircumflex" unicode="&#x134;" horiz-adv-x="556" 
d="M98 234v-26q-2 -164 158 -164q80 0 119.5 38.5t39.5 137.5v494h74v-514q0 -100 -59.5 -159t-177.5 -59q-63 0 -108.5 18.5t-68 43.5t-35 64t-14.5 64.5t-2 61.5h74zM265 769l142 142h80l143 -142h-75l-108 101l-107 -101h-75z" />
    <glyph glyph-name="jcircumflex" unicode="&#x135;" 
d="M-75 -217v62q16 -3 50 -3q46 0 62.5 18.5t16.5 60.5v599h74v-599q0 -141 -133 -141q-1 0 -70 3zM-94 599l142 142h80l143 -142h-75l-108 101l-107 -101h-75z" />
    <glyph glyph-name="Kcommaaccent" unicode="&#x136;" horiz-adv-x="741" 
d="M78 0l-1 714h74v-386l461 386h107l-354 -295l379 -419h-105l-332 369l-156 -128l1 -241h-74zM350 -150v100h74v-91q0 -73 -80 -79v31q33 8 34 39h-28z" />
    <glyph glyph-name="kcommaaccent" unicode="&#x137;" horiz-adv-x="574" 
d="M57 0l-1 720h74v-453l317 253h110l-255 -197l275 -323h-98l-232 275l-117 -89l1 -186h-74zM259 -150v100h74v-91q0 -73 -80 -79v31q33 8 34 39h-28z" />
    <glyph glyph-name="Lacute" unicode="&#x139;" horiz-adv-x="593" 
d="M66 0l-1 714h74v-646h453l1 -68h-527zM73 769l115 142h91l-145 -142h-61z" />
    <glyph glyph-name="lacute" unicode="&#x13a;" 
d="M55 0l-1 720h74l1 -720h-74zM54 769l115 142h91l-145 -142h-61z" />
    <glyph glyph-name="Lcommaaccent" unicode="&#x13b;" horiz-adv-x="593" 
d="M66 0l-1 714h74v-646h453l1 -68h-527zM287 -150v100h74v-91q0 -73 -80 -79v31q33 8 34 39h-28z" />
    <glyph glyph-name="lcommaaccent" unicode="&#x13c;" 
d="M55 0l-1 720h74l1 -720h-74zM56 -150v100h74v-91q0 -73 -80 -79v31q33 8 34 39h-28z" />
    <glyph glyph-name="Lcaron" unicode="&#x13d;" horiz-adv-x="593" 
d="M66 0l-1 714h74v-646h453l1 -68h-527zM243 578l25 142h83l-57 -142h-51z" />
    <glyph glyph-name="lcaron" unicode="&#x13e;" horiz-adv-x="263" 
d="M55 0l-1 720h74l1 -720h-74zM189 578l25 142h83l-57 -142h-51z" />
    <glyph glyph-name="Ldot" unicode="&#x13f;" horiz-adv-x="593" 
d="M66 0l-1 714h74v-646h453l1 -68h-527zM256 410v110h74v-110h-74z" />
    <glyph glyph-name="ldot" unicode="&#x140;" horiz-adv-x="308" 
d="M55 0l-1 720h74l1 -720h-74zM188 410v110h74v-110h-74z" />
    <glyph glyph-name="Lslash" unicode="&#x141;" horiz-adv-x="593" 
d="M139 360l210 146v-62l-210 -146v-230h453l1 -68h-527l-1 247l-77 -54v62l77 54v405h74v-354z" />
    <glyph glyph-name="lslash" unicode="&#x142;" 
d="M128 405l55 41v-56l-55 -41l1 -349h-74l-1 299l-54 -42v56l54 42v365h74v-315z" />
    <glyph glyph-name="Nacute" unicode="&#x143;" horiz-adv-x="796" 
d="M66 0l-1 714h89l499 -610h2v610h74l1 -714h-86l-503 610h-2l1 -610h-74zM361 769l115 142h91l-145 -142h-61z" />
    <glyph glyph-name="nacute" unicode="&#x144;" horiz-adv-x="630" 
d="M499 0l-1 335q0 139 -157 139q-106 0 -158.5 -50t-52.5 -142l1 -282h-74l-1 520h74v-102h2q17 46 75.5 82t139.5 36q122 0 173.5 -56.5t51.5 -157.5l1 -322h-74zM280 599l115 142h91l-145 -142h-61z" />
    <glyph glyph-name="Ncommaaccent" unicode="&#x145;" horiz-adv-x="796" 
d="M66 0l-1 714h89l499 -610h2v610h74l1 -714h-86l-503 610h-2l1 -610h-74zM355 -150v100h74v-91q0 -73 -80 -79v31q33 8 34 39h-28z" />
    <glyph glyph-name="ncommaaccent" unicode="&#x146;" horiz-adv-x="630" 
d="M499 0l-1 335q0 139 -157 139q-106 0 -158.5 -50t-52.5 -142l1 -282h-74l-1 520h74v-102h2q17 46 75.5 82t139.5 36q122 0 173.5 -56.5t51.5 -157.5l1 -322h-74zM279 -150v100h74v-91q0 -73 -80 -79v31q33 8 34 39h-28z" />
    <glyph glyph-name="Ncaron" unicode="&#x147;" horiz-adv-x="796" 
d="M66 0l-1 714h89l499 -610h2v610h74l1 -714h-86l-503 610h-2l1 -610h-74zM586 911l-143 -142h-80l-142 142h75l107 -101l108 101h75z" />
    <glyph glyph-name="ncaron" unicode="&#x148;" horiz-adv-x="630" 
d="M499 0l-1 335q0 139 -157 139q-106 0 -158.5 -50t-52.5 -142l1 -282h-74l-1 520h74v-102h2q17 46 75.5 82t139.5 36q122 0 173.5 -56.5t51.5 -157.5l1 -322h-74zM502 741l-143 -142h-80l-142 142h75l107 -101l108 101h75z" />
    <glyph glyph-name="Omacron" unicode="&#x14c;" horiz-adv-x="852" 
d="M117 357q0 -78 25.5 -138.5t69.5 -96.5t98 -54t115 -18t115 18t98 54t69.5 96.5t25.5 138.5t-25.5 138.5t-69.5 96.5t-98 54t-115 18t-115 -18t-98 -54t-69.5 -96.5t-25.5 -138.5zM37 357q0 91 32 164t86.5 118.5t123 69t146.5 23.5t146.5 -23.5t123 -69t86.5 -118.5
t32 -164t-32 -164t-86.5 -118.5t-123 -69t-146.5 -23.5t-146.5 23.5t-123 69t-86.5 118.5t-32 164zM234 812v56h385v-56h-385z" />
    <glyph glyph-name="omacron" unicode="&#x14d;" horiz-adv-x="668" 
d="M38 260q0 117 76.5 196.5t218.5 79.5t218.5 -79.5t76.5 -196.5t-76.5 -196.5t-218.5 -79.5t-218.5 79.5t-76.5 196.5zM112 260q0 -95 59 -154.5t162 -59.5t162 59.5t59 154.5t-59 154.5t-162 59.5t-162 -59.5t-59 -154.5zM143 642v56h385v-56h-385z" />
    <glyph glyph-name="Obreve" unicode="&#x14e;" horiz-adv-x="852" 
d="M117 357q0 -78 25.5 -138.5t69.5 -96.5t98 -54t115 -18t115 18t98 54t69.5 96.5t25.5 138.5t-25.5 138.5t-69.5 96.5t-98 54t-115 18t-115 -18t-98 -54t-69.5 -96.5t-25.5 -138.5zM37 357q0 91 32 164t86.5 118.5t123 69t146.5 23.5t146.5 -23.5t123 -69t86.5 -118.5
t32 -164t-32 -164t-86.5 -118.5t-123 -69t-146.5 -23.5t-146.5 23.5t-123 69t-86.5 118.5t-32 164zM262 906h50q3 -41 31 -58.5t83 -17.5q110 0 115 76h50q-12 -132 -165 -132q-152 0 -164 132z" />
    <glyph glyph-name="obreve" unicode="&#x14f;" horiz-adv-x="668" 
d="M38 260q0 117 76.5 196.5t218.5 79.5t218.5 -79.5t76.5 -196.5t-76.5 -196.5t-218.5 -79.5t-218.5 79.5t-76.5 196.5zM112 260q0 -95 59 -154.5t162 -59.5t162 59.5t59 154.5t-59 154.5t-162 59.5t-162 -59.5t-59 -154.5zM171 736h50q3 -41 31 -58.5t83 -17.5
q110 0 115 76h50q-12 -132 -165 -132q-152 0 -164 132z" />
    <glyph glyph-name="Ohungarumlaut" unicode="&#x150;" horiz-adv-x="852" 
d="M117 357q0 -78 25.5 -138.5t69.5 -96.5t98 -54t115 -18t115 18t98 54t69.5 96.5t25.5 138.5t-25.5 138.5t-69.5 96.5t-98 54t-115 18t-115 -18t-98 -54t-69.5 -96.5t-25.5 -138.5zM37 357q0 91 32 164t86.5 118.5t123 69t146.5 23.5t146.5 -23.5t123 -69t86.5 -118.5
t32 -164t-32 -164t-86.5 -118.5t-123 -69t-146.5 -23.5t-146.5 23.5t-123 69t-86.5 118.5t-32 164zM492 769l115 142h91l-145 -142h-61zM271 769l114 142h91l-144 -142h-61z" />
    <glyph glyph-name="ohungarumlaut" unicode="&#x151;" horiz-adv-x="668" 
d="M38 260q0 117 76.5 196.5t218.5 79.5t218.5 -79.5t76.5 -196.5t-76.5 -196.5t-218.5 -79.5t-218.5 79.5t-76.5 196.5zM112 260q0 -95 59 -154.5t162 -59.5t162 59.5t59 154.5t-59 154.5t-162 59.5t-162 -59.5t-59 -154.5zM407 599l115 142h91l-145 -142h-61zM186 599
l114 142h91l-144 -142h-61z" />
    <glyph glyph-name="OE" unicode="&#x152;" horiz-adv-x="1167" 
d="M616 0l-1 78q-82 -96 -224 -96q-155 0 -254.5 97t-99.5 278q0 99 38.5 182.5t121 138t194.5 54.5q153 0 222 -86h2v68h515v-68h-441v-242h418v-68h-418v-268h446l1 -68h-520zM615 178v373q0 10 -13.5 27.5t-39 37.5t-71.5 34t-100 14q-117 0 -195.5 -81.5t-78.5 -225.5
q0 -151 75.5 -229t198.5 -78q54 0 99.5 16t71 38t39.5 42t14 32z" />
    <glyph glyph-name="oe" unicode="&#x153;" horiz-adv-x="1093" 
d="M588 298h401q-15 89 -71.5 132.5t-124.5 43.5q-89 0 -139 -42t-66 -134zM102 260q0 -95 57.5 -154.5t154.5 -59.5q96 -2 151 53.5t55 160.5q0 93 -50.5 153.5t-152.5 60.5q-100 0 -157.5 -59.5t-57.5 -154.5zM976 166h74q-24 -77 -90 -129.5t-167 -52.5q-85 0 -152 34.5
t-92 102.5q-74 -137 -250 -137q-122 0 -196.5 79t-74.5 197q0 114 75 195t200 81q105 0 160.5 -36.5t90.5 -103.5q27 63 87.5 101.5t151.5 38.5q35 0 69.5 -7.5t72 -28.5t65 -52.5t45.5 -85t18 -120.5h-475q5 -196 205 -196q143 0 183 120z" />
    <glyph glyph-name="Racute" unicode="&#x154;" horiz-adv-x="741" 
d="M151 646v-264h313q154 0 154 139q0 125 -147 125h-320zM78 0l-1 714h389q103 0 167.5 -44.5t64.5 -148.5q0 -60 -37 -109t-103 -64v-2q71 -11 97 -57t30 -141q9 -134 26 -148h-80q-18 18 -20 146q-2 94 -40.5 131t-132.5 37h-287l1 -314h-74zM328 769l115 142h91
l-145 -142h-61z" />
    <glyph glyph-name="racute" unicode="&#x155;" horiz-adv-x="370" 
d="M57 0l-1 520h74v-119h2q12 27 26 47.5t37 42t57.5 33.5t78.5 12q29 0 44 -4v-76q-35 6 -68 6q-71 0 -124 -48t-53 -149l1 -265h-74zM68 599l115 142h91l-145 -142h-61z" />
    <glyph glyph-name="Rcommaaccent" unicode="&#x156;" horiz-adv-x="741" 
d="M151 646v-264h313q154 0 154 139q0 125 -147 125h-320zM78 0l-1 714h389q103 0 167.5 -44.5t64.5 -148.5q0 -60 -37 -109t-103 -64v-2q71 -11 97 -57t30 -141q9 -134 26 -148h-80q-18 18 -20 146q-2 94 -40.5 131t-132.5 37h-287l1 -314h-74zM343 -150v100h74v-91
q0 -73 -80 -79v31q33 8 34 39h-28z" />
    <glyph glyph-name="rcommaaccent" unicode="&#x157;" horiz-adv-x="370" 
d="M57 0l-1 520h74v-119h2q12 27 26 47.5t37 42t57.5 33.5t78.5 12q29 0 44 -4v-76q-35 6 -68 6q-71 0 -124 -48t-53 -149l1 -265h-74zM58 -150v100h74v-91q0 -73 -80 -79v31q33 8 34 39h-28z" />
    <glyph glyph-name="Rcaron" unicode="&#x158;" horiz-adv-x="741" 
d="M151 646v-264h313q154 0 154 139q0 125 -147 125h-320zM78 0l-1 714h389q103 0 167.5 -44.5t64.5 -148.5q0 -60 -37 -109t-103 -64v-2q71 -11 97 -57t30 -141q9 -134 26 -148h-80q-18 18 -20 146q-2 94 -40.5 131t-132.5 37h-287l1 -314h-74zM547 911l-143 -142h-80
l-142 142h75l107 -101l108 101h75z" />
    <glyph glyph-name="rcaron" unicode="&#x159;" horiz-adv-x="370" 
d="M57 0l-1 520h74v-119h2q12 27 26 47.5t37 42t57.5 33.5t78.5 12q29 0 44 -4v-76q-35 6 -68 6q-71 0 -124 -48t-53 -149l1 -265h-74zM390 741l-143 -142h-80l-142 142h75l107 -101l108 101h75z" />
    <glyph glyph-name="Sacute" unicode="&#x15a;" horiz-adv-x="668" 
d="M623 510h-74q-14 154 -224 154q-89 0 -145.5 -33.5t-56.5 -92.5q0 -34 15 -57t52.5 -39t78.5 -26t115 -22q46 -7 78 -14.5t69 -22t59.5 -33.5t38 -49.5t15.5 -69.5q0 -63 -26.5 -108.5t-71.5 -69.5t-94 -34.5t-106 -10.5q-146 0 -231 59t-93 195h74q9 -105 73 -145.5
t177 -40.5q59 0 105 11.5t79.5 44.5t33.5 86q0 25 -8 44.5t-27 33t-35.5 22.5t-50.5 17t-53.5 11.5t-60.5 10.5q-17 3 -25 4q-135 21 -198 64t-63 126q0 74 43 122.5t103.5 66.5t135.5 18q46 0 87 -6.5t79.5 -23t66.5 -41t46 -63.5t19 -88zM295 769l115 142h91l-145 -142
h-61z" />
    <glyph glyph-name="sacute" unicode="&#x15b;" horiz-adv-x="556" 
d="M511 366h-68q-14 61 -54.5 84.5t-124.5 23.5q-150 0 -150 -89q0 -39 36 -54.5t157 -31.5q126 -17 175.5 -47t49.5 -103q0 -79 -63 -122t-184 -43q-263 0 -263 179h68q10 -65 52.5 -91t142.5 -26q84 0 128.5 22t44.5 77q0 40 -40.5 59.5t-158.5 31.5q-121 12 -170 44.5
t-49 101.5q0 70 57 112t167 42q123 0 182 -43t65 -127zM243 599l115 142h91l-145 -142h-61z" />
    <glyph glyph-name="Scircumflex" unicode="&#x15c;" horiz-adv-x="668" 
d="M623 510h-74q-14 154 -224 154q-89 0 -145.5 -33.5t-56.5 -92.5q0 -34 15 -57t52.5 -39t78.5 -26t115 -22q46 -7 78 -14.5t69 -22t59.5 -33.5t38 -49.5t15.5 -69.5q0 -63 -26.5 -108.5t-71.5 -69.5t-94 -34.5t-106 -10.5q-146 0 -231 59t-93 195h74q9 -105 73 -145.5
t177 -40.5q59 0 105 11.5t79.5 44.5t33.5 86q0 25 -8 44.5t-27 33t-35.5 22.5t-50.5 17t-53.5 11.5t-60.5 10.5q-17 3 -25 4q-135 21 -198 64t-63 126q0 74 43 122.5t103.5 66.5t135.5 18q46 0 87 -6.5t79.5 -23t66.5 -41t46 -63.5t19 -88zM159 769l142 142h80l143 -142h-75
l-108 101l-107 -101h-75z" />
    <glyph glyph-name="scircumflex" unicode="&#x15d;" horiz-adv-x="556" 
d="M511 366h-68q-14 61 -54.5 84.5t-124.5 23.5q-150 0 -150 -89q0 -39 36 -54.5t157 -31.5q126 -17 175.5 -47t49.5 -103q0 -79 -63 -122t-184 -43q-263 0 -263 179h68q10 -65 52.5 -91t142.5 -26q84 0 128.5 22t44.5 77q0 40 -40.5 59.5t-158.5 31.5q-121 12 -170 44.5
t-49 101.5q0 70 57 112t167 42q123 0 182 -43t65 -127zM100 599l142 142h80l143 -142h-75l-108 101l-107 -101h-75z" />
    <glyph glyph-name="Scedilla" unicode="&#x15e;" horiz-adv-x="668" 
d="M623 510h-74q-14 154 -224 154q-89 0 -145.5 -33.5t-56.5 -92.5q0 -34 15 -57t52.5 -39t78.5 -26t115 -22q46 -7 78 -14.5t69 -22t59.5 -33.5t38 -49.5t15.5 -69.5q0 -63 -26.5 -108.5t-71.5 -69.5t-94 -34.5t-106 -10.5h-12l-29 -41l2 -2q17 5 40 5q39 0 62.5 -19
t23.5 -51t-35 -54t-91 -22t-97 17l12 35q46 -14 81 -14q68 0 68 38q0 18 -16 27t-36 9q-34 0 -53 -11l-17 17l46 68q-35 3 -75 11q-187 39 -198 241h74q9 -105 73 -145.5t177 -40.5q59 0 105 11.5t79.5 44.5t33.5 86q0 25 -8 44.5t-27 33t-35.5 22.5t-50.5 17t-53.5 11.5
t-60.5 10.5q-17 3 -25 4q-135 21 -198 64t-63 126q0 74 43 122.5t103.5 66.5t135.5 18q46 0 87 -6.5t79.5 -23t66.5 -41t46 -63.5t19 -88z" />
    <glyph glyph-name="Scedilla" unicode="&#xf6c1;" horiz-adv-x="668" 
d="M623 510h-74q-14 154 -224 154q-89 0 -145.5 -33.5t-56.5 -92.5q0 -34 15 -57t52.5 -39t78.5 -26t115 -22q46 -7 78 -14.5t69 -22t59.5 -33.5t38 -49.5t15.5 -69.5q0 -63 -26.5 -108.5t-71.5 -69.5t-94 -34.5t-106 -10.5h-12l-29 -41l2 -2q17 5 40 5q39 0 62.5 -19
t23.5 -51t-35 -54t-91 -22t-97 17l12 35q46 -14 81 -14q68 0 68 38q0 18 -16 27t-36 9q-34 0 -53 -11l-17 17l46 68q-35 3 -75 11q-187 39 -198 241h74q9 -105 73 -145.5t177 -40.5q59 0 105 11.5t79.5 44.5t33.5 86q0 25 -8 44.5t-27 33t-35.5 22.5t-50.5 17t-53.5 11.5
t-60.5 10.5q-17 3 -25 4q-135 21 -198 64t-63 126q0 74 43 122.5t103.5 66.5t135.5 18q46 0 87 -6.5t79.5 -23t66.5 -41t46 -63.5t19 -88z" />
    <glyph glyph-name="scedilla" unicode="&#x15f;" horiz-adv-x="556" 
d="M511 366h-68q-14 61 -54.5 84.5t-124.5 23.5q-150 0 -150 -89q0 -39 36 -54.5t157 -31.5q126 -17 175.5 -47t49.5 -103q0 -79 -63 -122t-184 -43h-1l-30 -43l2 -2q17 5 40 5q39 0 62.5 -19t23.5 -51t-35 -54t-91 -22t-97 17l12 35q45 -14 81 -14q68 0 68 38q0 18 -16 27
t-36 9q-34 0 -53 -11l-17 17l47 69q-94 6 -154 41q-69 44 -69 137h68q10 -65 52.5 -91t142.5 -26q84 0 128.5 22t44.5 77q0 40 -40.5 59.5t-158.5 31.5q-121 12 -170 44.5t-49 101.5q0 70 57 112t167 42q123 0 182 -43t65 -127z" />
    <glyph glyph-name="scedilla" unicode="&#xf6c2;" horiz-adv-x="556" 
d="M511 366h-68q-14 61 -54.5 84.5t-124.5 23.5q-150 0 -150 -89q0 -39 36 -54.5t157 -31.5q126 -17 175.5 -47t49.5 -103q0 -79 -63 -122t-184 -43h-1l-30 -43l2 -2q17 5 40 5q39 0 62.5 -19t23.5 -51t-35 -54t-91 -22t-97 17l12 35q45 -14 81 -14q68 0 68 38q0 18 -16 27
t-36 9q-34 0 -53 -11l-17 17l47 69q-94 6 -154 41q-69 44 -69 137h68q10 -65 52.5 -91t142.5 -26q84 0 128.5 22t44.5 77q0 40 -40.5 59.5t-158.5 31.5q-121 12 -170 44.5t-49 101.5q0 70 57 112t167 42q123 0 182 -43t65 -127z" />
    <glyph glyph-name="Scaron" unicode="&#x160;" horiz-adv-x="668" 
d="M623 510h-74q-14 154 -224 154q-89 0 -145.5 -33.5t-56.5 -92.5q0 -34 15 -57t52.5 -39t78.5 -26t115 -22q46 -7 78 -14.5t69 -22t59.5 -33.5t38 -49.5t15.5 -69.5q0 -63 -26.5 -108.5t-71.5 -69.5t-94 -34.5t-106 -10.5q-146 0 -231 59t-93 195h74q9 -105 73 -145.5
t177 -40.5q59 0 105 11.5t79.5 44.5t33.5 86q0 25 -8 44.5t-27 33t-35.5 22.5t-50.5 17t-53.5 11.5t-60.5 10.5q-17 3 -25 4q-135 21 -198 64t-63 126q0 74 43 122.5t103.5 66.5t135.5 18q46 0 87 -6.5t79.5 -23t66.5 -41t46 -63.5t19 -88zM519 911l-143 -142h-80l-142 142
h75l107 -101l108 101h75z" />
    <glyph glyph-name="scaron" unicode="&#x161;" horiz-adv-x="556" 
d="M511 366h-68q-14 61 -54.5 84.5t-124.5 23.5q-150 0 -150 -89q0 -39 36 -54.5t157 -31.5q126 -17 175.5 -47t49.5 -103q0 -79 -63 -122t-184 -43q-263 0 -263 179h68q10 -65 52.5 -91t142.5 -26q84 0 128.5 22t44.5 77q0 40 -40.5 59.5t-158.5 31.5q-121 12 -170 44.5
t-49 101.5q0 70 57 112t167 42q123 0 182 -43t65 -127zM466 741l-143 -142h-80l-142 142h75l107 -101l108 101h75z" />
    <glyph glyph-name="Tcommaaccent" unicode="&#x162;" horiz-adv-x="630" 
d="M278 0l-1 646h-279v68h633v-68h-280l1 -646h-74zM278 -150v100h74v-91q0 -73 -80 -79v31q33 8 34 39h-28z" />
    <glyph glyph-name="tcommaaccent" unicode="&#x163;" horiz-adv-x="352" 
d="M106 520v164h74v-164h147v-56h-147v-344q0 -36 15.5 -51t58.5 -15t73 6v-62q-42 -6 -81 -6q-82 0 -111 30.5t-29 98.5v343h-112v56h112zM172 -150v100h74v-91q0 -73 -80 -79v31q33 8 34 39h-28z" />
    <glyph glyph-name="Tcaron" unicode="&#x164;" horiz-adv-x="630" 
d="M278 0l-1 646h-279v68h633v-68h-280l1 -646h-74zM497 911l-143 -142h-80l-142 142h75l107 -101l108 101h75z" />
    <glyph glyph-name="tcaron" unicode="&#x165;" horiz-adv-x="383" 
d="M309 578l25 142h83l-57 -142h-51zM106 520v164h74v-164h147v-56h-147v-344q0 -36 15.5 -51t58.5 -15t73 6v-62q-42 -6 -81 -6q-82 0 -111 30.5t-29 98.5v343h-112v56h112z" />
    <glyph glyph-name="Tbar" unicode="&#x166;" horiz-adv-x="630" 
d="M100 390v56h177v200h-279v68h633v-68h-280v-200h180v-56h-180l1 -390h-74l-1 390h-177z" />
    <glyph glyph-name="tbar" unicode="&#x167;" horiz-adv-x="352" 
d="M-15 278v56h121v130h-112v56h112v164h74v-164h147v-56h-147v-130h157v-56h-157v-158q0 -36 15.5 -51t58.5 -15t73 6v-62q-42 -6 -81 -6q-82 0 -111 30.5t-29 98.5v157h-121z" />
    <glyph glyph-name="Utilde" unicode="&#x168;" horiz-adv-x="778" 
d="M707 714v-438q0 -45 -5.5 -81.5t-25.5 -78t-53 -69.5t-93.5 -46.5t-141.5 -18.5t-141.5 18.5t-93.5 46.5t-53 69.5t-25.5 78t-5.5 81.5v438h74v-438q0 -67 20 -113.5t56.5 -70t77 -33t91.5 -9.5t91.5 9.5t77 33t56.5 70t20 113.5v438h74zM529 894h44q-8 -43 -27 -70
q-27 -38 -76 -38q-36 0 -90 26t-79 26q-46 0 -53 -52h-44q21 108 102 108q36 0 90 -26t79 -26q47 0 54 52z" />
    <glyph glyph-name="utilde" unicode="&#x169;" horiz-adv-x="630" 
d="M499 0l-1 102h-2q-17 -46 -75.5 -82t-139.5 -36q-122 0 -173.5 56.5t-51.5 157.5v322h74v-335q0 -139 157 -139q106 0 158.5 50t52.5 142v282h74l1 -520h-74zM453 724h44q-8 -43 -27 -70q-27 -38 -76 -38q-36 0 -90 26t-79 26q-46 0 -53 -52h-44q21 108 102 108
q36 0 90 -26t79 -26q47 0 54 52z" />
    <glyph glyph-name="Umacron" unicode="&#x16a;" horiz-adv-x="778" 
d="M707 714v-438q0 -45 -5.5 -81.5t-25.5 -78t-53 -69.5t-93.5 -46.5t-141.5 -18.5t-141.5 18.5t-93.5 46.5t-53 69.5t-25.5 78t-5.5 81.5v438h74v-438q0 -67 20 -113.5t56.5 -70t77 -33t91.5 -9.5t91.5 9.5t77 33t56.5 70t20 113.5v438h74zM195 812v56h385v-56h-385z" />
    <glyph glyph-name="umacron" unicode="&#x16b;" horiz-adv-x="630" 
d="M499 0l-1 102h-2q-17 -46 -75.5 -82t-139.5 -36q-122 0 -173.5 56.5t-51.5 157.5v322h74v-335q0 -139 157 -139q106 0 158.5 50t52.5 142v282h74l1 -520h-74zM122 642v56h385v-56h-385z" />
    <glyph glyph-name="Ubreve" unicode="&#x16c;" horiz-adv-x="778" 
d="M707 714v-438q0 -45 -5.5 -81.5t-25.5 -78t-53 -69.5t-93.5 -46.5t-141.5 -18.5t-141.5 18.5t-93.5 46.5t-53 69.5t-25.5 78t-5.5 81.5v438h74v-438q0 -67 20 -113.5t56.5 -70t77 -33t91.5 -9.5t91.5 9.5t77 33t56.5 70t20 113.5v438h74zM225 906h50q3 -41 31 -58.5
t83 -17.5q110 0 115 76h50q-12 -132 -165 -132q-152 0 -164 132z" />
    <glyph glyph-name="ubreve" unicode="&#x16d;" horiz-adv-x="630" 
d="M499 0l-1 102h-2q-17 -46 -75.5 -82t-139.5 -36q-122 0 -173.5 56.5t-51.5 157.5v322h74v-335q0 -139 157 -139q106 0 158.5 50t52.5 142v282h74l1 -520h-74zM150 736h50q3 -41 31 -58.5t83 -17.5q110 0 115 76h50q-12 -132 -165 -132q-152 0 -164 132z" />
    <glyph glyph-name="Uring" unicode="&#x16e;" horiz-adv-x="778" 
d="M707 714v-438q0 -45 -5.5 -81.5t-25.5 -78t-53 -69.5t-93.5 -46.5t-141.5 -18.5t-141.5 18.5t-93.5 46.5t-53 69.5t-25.5 78t-5.5 81.5v438h74v-438q0 -67 20 -113.5t56.5 -70t77 -33t91.5 -9.5t91.5 9.5t77 33t56.5 70t20 113.5v438h74zM315 864q0 -30 21 -51t51 -21
t51 21t21 51t-21 51t-51 21t-51 -21t-21 -51zM277 864q0 45 32 76t78 31q45 0 77.5 -30t32.5 -77t-32.5 -77t-77.5 -30q-47 0 -78.5 30t-31.5 77z" />
    <glyph glyph-name="uring" unicode="&#x16f;" horiz-adv-x="630" 
d="M499 0l-1 102h-2q-17 -46 -75.5 -82t-139.5 -36q-122 0 -173.5 56.5t-51.5 157.5v322h74v-335q0 -139 157 -139q106 0 158.5 50t52.5 142v282h74l1 -520h-74zM242 700q0 -30 21 -51t51 -21t51 21t21 51t-21 51t-51 21t-51 -21t-21 -51zM204 700q0 45 32 76t78 31
q45 0 77.5 -30t32.5 -77t-32.5 -77t-77.5 -30q-47 0 -78.5 30t-31.5 77z" />
    <glyph glyph-name="Uhungarumlaut" unicode="&#x170;" horiz-adv-x="778" 
d="M707 714v-438q0 -45 -5.5 -81.5t-25.5 -78t-53 -69.5t-93.5 -46.5t-141.5 -18.5t-141.5 18.5t-93.5 46.5t-53 69.5t-25.5 78t-5.5 81.5v438h74v-438q0 -67 20 -113.5t56.5 -70t77 -33t91.5 -9.5t91.5 9.5t77 33t56.5 70t20 113.5v438h74zM462 769l115 142h91l-145 -142
h-61zM241 769l114 142h91l-144 -142h-61z" />
    <glyph glyph-name="uhungarumlaut" unicode="&#x171;" horiz-adv-x="630" 
d="M499 0l-1 102h-2q-17 -46 -75.5 -82t-139.5 -36q-122 0 -173.5 56.5t-51.5 157.5v322h74v-335q0 -139 157 -139q106 0 158.5 50t52.5 142v282h74l1 -520h-74zM389 599l115 142h91l-145 -142h-61zM168 599l114 142h91l-144 -142h-61z" />
    <glyph glyph-name="Uogonek" unicode="&#x172;" horiz-adv-x="778" 
d="M481 -144l13 -34q-48 -24 -105 -24q-100 0 -100 77q0 41 41 80q12 11 36 27q-92 3 -147 27q-46 20 -77.5 50.5t-46.5 67.5t-20.5 71.5t-5.5 77.5v438h74v-438q0 -67 20 -113.5t56.5 -70t77 -33t91.5 -9.5t91.5 9.5t77 33t56.5 70t20 113.5v438h74v-438q0 -43 -5.5 -77.5
t-20.5 -71.5t-46.5 -67.5t-77.5 -50.5q-50 -21 -133 -26q-32 -24 -42 -36q-32 -34 -32 -66q0 -21 14 -32t36 -11q39 0 81 18z" />
    <glyph glyph-name="uogonek" unicode="&#x173;" horiz-adv-x="630" 
d="M584 -144l13 -34q-48 -24 -103 -24q-98 0 -98 77q0 24 11 44q21 35 92 81l-1 102h-2q-17 -46 -75.5 -82t-139.5 -36q-122 0 -173.5 56.5t-51.5 157.5v322h74v-335q0 -139 157 -139q106 0 158.5 50t52.5 142v282h74l1 -520h-21q-54 -41 -65 -53q-31 -33 -31 -66
q0 -21 13.5 -32t35.5 -11q37 0 79 18z" />
    <glyph glyph-name="Wcircumflex" unicode="&#x174;" horiz-adv-x="1056" 
d="M786 98l200 616h80l-239 -714h-86l-216 610h-2l-211 -610h-86l-237 714h82l198 -616h2l211 616h91l211 -616h2zM347 769l142 142h80l143 -142h-75l-108 101l-107 -101h-75z" />
    <glyph glyph-name="wcircumflex" unicode="&#x175;" horiz-adv-x="889" 
d="M641 97l167 423h80l-210 -520h-80l-158 416l-154 -416h-80l-206 520h79l165 -426l157 426h80zM260 599l142 142h80l143 -142h-75l-108 101l-107 -101h-75z" />
    <glyph glyph-name="Ycircumflex" unicode="&#x176;" horiz-adv-x="686" 
d="M306 0l-1 300l-320 414h95l262 -340l262 340h96l-321 -414l1 -300h-74zM160 769l142 142h80l143 -142h-75l-108 101l-107 -101h-75z" />
    <glyph glyph-name="ycircumflex" unicode="&#x177;" horiz-adv-x="556" 
d="M285 87l196 433h80l-282 -617q-28 -61 -59.5 -83t-92.5 -22h-36q-13 0 -35 2v62q32 -2 53 -2q41 0 63.5 13t39.5 51l34 72l-252 524h79zM104 599l142 142h80l143 -142h-75l-108 101l-107 -101h-75z" />
    <glyph glyph-name="Ydieresis" unicode="&#x178;" horiz-adv-x="686" 
d="M306 0l-1 300l-320 414h95l262 -340l262 340h96l-321 -414l1 -300h-74zM417 785v110h74v-110h-74zM192 785v110h73v-110h-73z" />
    <glyph glyph-name="Zacute" unicode="&#x179;" horiz-adv-x="648" 
d="M5 0l-1 68l530 578h-496v68h596v-68l-533 -578h541l1 -68h-638zM290 769l115 142h91l-145 -142h-61z" />
    <glyph glyph-name="zacute" unicode="&#x17a;" horiz-adv-x="556" 
d="M20 0l-1 62l395 396h-372v62h478v-62l-403 -396h418l1 -62h-516zM240 599l115 142h91l-145 -142h-61z" />
    <glyph glyph-name="Zdotaccent" unicode="&#x17b;" horiz-adv-x="648" 
d="M5 0l-1 68l530 578h-496v68h596v-68l-533 -578h541l1 -68h-638zM299 785v110h74v-110h-74z" />
    <glyph glyph-name="zdotaccent" unicode="&#x17c;" horiz-adv-x="556" 
d="M20 0l-1 62l395 396h-372v62h478v-62l-403 -396h418l1 -62h-516zM245 615v110h74v-110h-74z" />
    <glyph glyph-name="Zcaron" unicode="&#x17d;" horiz-adv-x="648" 
d="M5 0l-1 68l530 578h-496v68h596v-68l-533 -578h541l1 -68h-638zM515 911l-143 -142h-80l-142 142h75l107 -101l108 101h75z" />
    <glyph glyph-name="zcaron" unicode="&#x17e;" horiz-adv-x="556" 
d="M20 0l-1 62l395 396h-372v62h478v-62l-403 -396h418l1 -62h-516zM466 741l-143 -142h-80l-142 142h75l107 -101l108 101h75z" />
    <glyph glyph-name="florin" unicode="&#x192;" horiz-adv-x="668" 
d="M160 356l9 44h135l33 156q20 92 63 122t108 30q35 0 85 -8l-11 -60q-46 6 -69 6q-45 0 -69 -21.5t-39 -94.5l-27 -130h139l-11 -44h-137l-78 -371q-8 -35 -14 -56t-19.5 -48t-30.5 -41.5t-45.5 -25t-66.5 -10.5t-87 7l11 60q38 -5 67 -5q55 0 76 24t39 109l74 357h-135z
" />
    <glyph glyph-name="Scommaaccent" unicode="&#x218;" horiz-adv-x="668" 
d="M623 510h-74q-14 154 -224 154q-89 0 -145.5 -33.5t-56.5 -92.5q0 -34 15 -57t52.5 -39t78.5 -26t115 -22q46 -7 78 -14.5t69 -22t59.5 -33.5t38 -49.5t15.5 -69.5q0 -63 -26.5 -108.5t-71.5 -69.5t-94 -34.5t-106 -10.5q-146 0 -231 59t-93 195h74q9 -105 73 -145.5
t177 -40.5q59 0 105 11.5t79.5 44.5t33.5 86q0 25 -8 44.5t-27 33t-35.5 22.5t-50.5 17t-53.5 11.5t-60.5 10.5q-17 3 -25 4q-135 21 -198 64t-63 126q0 74 43 122.5t103.5 66.5t135.5 18q46 0 87 -6.5t79.5 -23t66.5 -41t46 -63.5t19 -88zM299 -150v100h74v-91
q0 -73 -80 -79v31q33 8 34 39h-28z" />
    <glyph glyph-name="scommaaccent" unicode="&#x219;" horiz-adv-x="556" 
d="M511 366h-68q-14 61 -54.5 84.5t-124.5 23.5q-150 0 -150 -89q0 -39 36 -54.5t157 -31.5q126 -17 175.5 -47t49.5 -103q0 -79 -63 -122t-184 -43q-263 0 -263 179h68q10 -65 52.5 -91t142.5 -26q84 0 128.5 22t44.5 77q0 40 -40.5 59.5t-158.5 31.5q-121 12 -170 44.5
t-49 101.5q0 70 57 112t167 42q123 0 182 -43t65 -127zM239 -150v100h74v-91q0 -73 -80 -79v31q33 8 34 39h-28z" />
    <glyph glyph-name="uni021A" unicode="&#x21a;" horiz-adv-x="630" 
d="M278 0l-1 646h-279v68h633v-68h-280l1 -646h-74zM278 -150v100h74v-91q0 -73 -80 -79v31q33 8 34 39h-28z" />
    <glyph glyph-name="uni021B" unicode="&#x21b;" horiz-adv-x="352" 
d="M106 520v164h74v-164h147v-56h-147v-344q0 -36 15.5 -51t58.5 -15t73 6v-62q-42 -6 -81 -6q-82 0 -111 30.5t-29 98.5v343h-112v56h112zM172 -150v100h74v-91q0 -73 -80 -79v31q33 8 34 39h-28z" />
    <glyph glyph-name="circumflex" unicode="&#x2c6;" 
d="M-91 599l142 142h80l143 -142h-75l-108 101l-107 -101h-75z" />
    <glyph glyph-name="caron" unicode="&#x2c7;" 
d="M274 741l-143 -142h-80l-142 142h75l107 -101l108 101h75z" />
    <glyph glyph-name="uni02C9" unicode="&#x2c9;" 
d="M-102 642v56h385v-56h-385z" />
    <glyph glyph-name="breve" unicode="&#x2d8;" 
d="M-73 736h50q3 -41 31 -58.5t83 -17.5q110 0 115 76h50q-12 -132 -165 -132q-152 0 -164 132z" />
    <glyph glyph-name="dotaccent" unicode="&#x2d9;" 
d="M54 615v110h74v-110h-74z" />
    <glyph glyph-name="ring" unicode="&#x2da;" 
d="M19 700q0 -30 21 -51t51 -21t51 21t21 51t-21 51t-51 21t-51 -21t-21 -51zM-19 700q0 45 32 76t78 31q45 0 77.5 -30t32.5 -77t-32.5 -77t-77.5 -30q-47 0 -78.5 30t-31.5 77z" />
    <glyph glyph-name="ogonek" unicode="&#x2db;" 
d="M197 -144l13 -34q-48 -24 -105 -24q-100 0 -100 77q0 24 11 44q12 19 30 36q19 17 64 45h54q-54 -40 -66 -53q-32 -34 -32 -66q0 -21 14 -32t36 -11q39 0 81 18z" />
    <glyph glyph-name="tilde" unicode="&#x2dc;" 
d="M232 724h44q-8 -43 -27 -70q-27 -38 -76 -38q-36 0 -90 26t-79 26q-46 0 -53 -52h-44q21 108 102 108q36 0 90 -26t79 -26q47 0 54 52z" />
    <glyph glyph-name="hungarumlaut" unicode="&#x2dd;" 
d="M138 599l115 142h91l-145 -142h-61zM-83 599l114 142h91l-144 -142h-61z" />
    <glyph glyph-name="uni0394" unicode="&#x394;" horiz-adv-x="670" 
d="M561 62l-229 583l-226 -583h455zM657 0h-642l281 712h74z" />
    <glyph glyph-name="uni03A9" unicode="&#x3a9;" horiz-adv-x="744" 
d="M685 0h-251v181q89 15 136.5 78.5t47.5 155.5q0 107 -72.5 176t-179.5 69q-106 0 -179 -70t-73 -175q0 -91 48 -155.5t136 -78.5v-181h-251v58h197v82q-92 26 -144.5 102t-52.5 174q0 132 94 218.5t226 86.5q131 0 224.5 -86.5t93.5 -217.5q0 -99 -52 -175.5t-145 -101.5
v-82h197v-58z" />
    <glyph glyph-name="uni03BC" unicode="&#x3bc;" horiz-adv-x="630" 
d="M499 0l-2 102h-2q-17 -46 -75.5 -82t-139.5 -36q-103 0 -151 50v-236h-73l-1 722h74v-335q0 -73 44 -106t113 -33q106 0 158.5 50t52.5 142v282h74l2 -520h-74z" />
    <glyph glyph-name="pi" unicode="&#x3c0;" horiz-adv-x="563" 
d="M540 60v-49q-36 -17 -64 -17q-23 0 -38.5 7t-23.5 16t-12 27t-5 31t-1 36v308h-260v-419h-64v419h-70v59h534v-59h-76v-315q0 -18 1.5 -27.5t10.5 -18t26 -8.5q21 0 42 10z" />
    <glyph glyph-name="endash" unicode="&#x2013;" horiz-adv-x="500" 
d="M0 243v62h499v-62h-499z" />
    <glyph glyph-name="emdash" unicode="&#x2014;" horiz-adv-x="1000" 
d="M0 243v62h999v-62h-999z" />
    <glyph glyph-name="quoteleft" unicode="&#x2018;" horiz-adv-x="278" 
d="M95 464v112q0 112 95 138v-38q-28 -13 -36.5 -36t-8.5 -66h36v-110h-86z" />
    <glyph glyph-name="quoteright" unicode="&#x2019;" horiz-adv-x="278" 
d="M95 604v110h86v-112q0 -112 -95 -138v38q28 13 36.5 36t8.5 66h-36z" />
    <glyph glyph-name="quotesinglbase" unicode="&#x201a;" horiz-adv-x="278" 
d="M96 0l-1 110h86v-112q0 -112 -95 -138v38q28 13 36.5 36t9.5 66h-36z" />
    <glyph glyph-name="quotedblleft" unicode="&#x201c;" horiz-adv-x="407" 
d="M70 464v112q0 112 95 138v-38q-28 -13 -36.5 -36t-8.5 -66h36v-110h-86zM249 464v112q0 112 95 138v-38q-28 -13 -36.5 -36t-8.5 -66h36v-110h-86z" />
    <glyph glyph-name="quotedblright" unicode="&#x201d;" horiz-adv-x="407" 
d="M70 604v110h86v-112q0 -112 -95 -138v38q28 13 36.5 36t8.5 66h-36zM249 604v110h86v-112q0 -112 -95 -138v38q28 13 36.5 36t8.5 66h-36z" />
    <glyph glyph-name="quotedblbase" unicode="&#x201e;" horiz-adv-x="407" 
d="M250 0l-1 110h86v-112q0 -112 -95 -138v38q28 13 36.5 36t9.5 66h-36zM71 0l-1 110h86v-112q0 -112 -95 -138v38q28 13 36.5 36t9.5 66h-36z" />
    <glyph glyph-name="dagger" unicode="&#x2020;" horiz-adv-x="668" 
d="M296 -156v581h-241v62h241v227h74v-227h241v-62h-241v-581h-74z" />
    <glyph glyph-name="daggerdbl" unicode="&#x2021;" horiz-adv-x="668" 
d="M296 -156v217h-241v62h241v317h-241v62h241v212h74v-212h241v-62h-241v-317h241v-62h-241v-217h-74z" />
    <glyph glyph-name="bullet" unicode="&#x2022;" horiz-adv-x="501" 
d="M71 357q0 74 52 126.5t126 52.5t126.5 -52.5t52.5 -126.5t-52.5 -126t-126.5 -52t-126 52t-52 126z" />
    <glyph glyph-name="ellipsis" unicode="&#x2026;" horiz-adv-x="1000" 
d="M790 0l-1 110h86l1 -110h-86zM457 0l-1 110h86l1 -110h-86zM124 0l-1 110h86l1 -110h-86z" />
    <glyph glyph-name="perthousand" unicode="&#x2030;" horiz-adv-x="1167" 
d="M593 34q54 0 83.5 38t29.5 106t-29.5 106t-83.5 38t-83.5 -38t-29.5 -106t29.5 -106t83.5 -38zM593 -16q-78 0 -126.5 50.5t-48.5 143.5t48.5 143.5t126.5 50.5t126.5 -50.5t48.5 -143.5t-48.5 -143.5t-126.5 -50.5zM180 320q-78 0 -126.5 50.5t-48.5 143.5t48.5 143.5
t126.5 50.5t126.5 -50.5t48.5 -143.5t-48.5 -143.5t-126.5 -50.5zM985 -16q-78 0 -126.5 50.5t-48.5 143.5t48.5 143.5t126.5 50.5t126.5 -50.5t48.5 -143.5t-48.5 -143.5t-126.5 -50.5zM180 370q54 0 83.5 38t29.5 106t-29.5 106t-83.5 38t-83.5 -38t-29.5 -106t29.5 -106
t83.5 -38zM119 -16l476 724h59l-476 -724h-59zM985 34q54 0 83.5 38t29.5 106t-29.5 106t-83.5 38t-83.5 -38t-29.5 -106t29.5 -106t83.5 -38z" />
    <glyph glyph-name="guilsinglleft" unicode="&#x2039;" horiz-adv-x="315" 
d="M72 238v72l157 135v-77l-113 -94l113 -94v-77z" />
    <glyph glyph-name="guilsinglright" unicode="&#x203a;" horiz-adv-x="315" 
d="M197 274l-113 94v77l157 -135v-72l-157 -135v77z" />
    <glyph glyph-name="fraction" unicode="&#x2044;" horiz-adv-x="167" 
d="M-158 -16l421 724h62l-421 -724h-62z" />
    <glyph glyph-name="Euro" unicode="&#x20ac;" horiz-adv-x="668" 
d="M657 613l-38 -60q-27 45 -72 67q-50 26 -130 26q-121 0 -180 -68q-40 -46 -52 -122h381l-28 -50h-360q-5 -54 0 -107h305l-28 -50h-272q12 -80 52 -130q58 -73 173 -73q83 0 149 35q50 28 86 73v-86q-36 -34 -76 -52q-72 -32 -163 -32q-147 0 -226 96q-57 69 -69 169
h-100l28 50h67q-5 53 0 107h-95l28 50h74q16 99 76 165q78 87 232 87q95 0 159 -31q46 -22 79 -64z" />
    <glyph glyph-name="afii61289" unicode="&#x2113;" horiz-adv-x="500" 
d="M406 38q-53 -52 -120 -52q-53 0 -86 31t-33 93v130l-59 -64h-2l-21 27l82 84v264q0 80 33.5 125t84.5 45q44 0 71.5 -33t27.5 -90q0 -141 -166 -321v-159q0 -50 23 -71t55 -21q46 0 88 39h2zM341 593q0 40 -16.5 65.5t-40.5 25.5q-28 0 -47 -32t-19 -94v-233
q123 145 123 268z" />
    <glyph glyph-name="trademark" unicode="&#x2122;" horiz-adv-x="990" 
d="M653 380l128 334h86v-412h-50v368h-2l-149 -368h-30l-149 368h-2v-368h-50v412h86zM176 302v368h-135v44h320v-44h-135v-368h-50z" />
    <glyph glyph-name="Omega" unicode="&#x2126;" horiz-adv-x="744" 
d="M685 0h-251v181q89 15 136.5 78.5t47.5 155.5q0 107 -72.5 176t-179.5 69q-106 0 -179 -70t-73 -175q0 -91 48 -155.5t136 -78.5v-181h-251v58h197v82q-92 26 -144.5 102t-52.5 174q0 132 94 218.5t226 86.5q131 0 224.5 -86.5t93.5 -217.5q0 -99 -52 -175.5t-145 -101.5
v-82h197v-58z" />
    <glyph glyph-name="estimated" unicode="&#x212e;" horiz-adv-x="600" 
d="M561 259h-404v-181q59 -59 145 -59q122 0 193 120l35 -21q-46 -72 -98 -103.5t-130 -31.5q-115 0 -186.5 79t-71.5 197q0 119 71 197.5t187 78.5q115 0 186.5 -77t72.5 -199zM157 295h291v145q-63 60 -147 60t-144 -60v-145z" />
    <glyph glyph-name="partialdiff" unicode="&#x2202;" horiz-adv-x="496" 
d="M386 278q-68 91 -155 91q-65 0 -101 -46t-36 -113q0 -66 36.5 -117.5t100.5 -51.5q41 0 72 23.5t47.5 61.5t25 75.5t10.5 76.5zM455 363q0 -50 -4.5 -96t-19.5 -99t-38.5 -91t-65.5 -63.5t-97 -25.5q-90 0 -144.5 66t-54.5 158q0 90 52.5 151.5t141.5 61.5q98 0 166 -84
q0 9 0.5 26t0.5 26q0 46 -9 90.5t-28 87t-56 69t-86 26.5q-52 0 -112 -46l-36 43q67 58 145 58q68 0 118.5 -33t76.5 -88.5t38 -114t12 -122.5z" />
    <glyph glyph-name="Delta" unicode="&#x2206;" horiz-adv-x="670" 
d="M561 62l-229 583l-226 -583h455zM657 0h-642l281 712h74z" />
    <glyph glyph-name="product" unicode="&#x220f;" horiz-adv-x="711" 
d="M641 -214h-66v938h-438v-938h-66v1000h570v-1000z" />
    <glyph glyph-name="summation" unicode="&#x2211;" horiz-adv-x="604" 
d="M578 -214h-553v55l329 448l-315 441v56h527v-62h-442l309 -435l-328 -442h473v-61z" />
    <glyph glyph-name="minus" unicode="&#x2212;" horiz-adv-x="600" 
d="M46 228v50h506v-50h-506z" />
    <glyph glyph-name="uni2215" unicode="&#x2215;" horiz-adv-x="167" 
d="M-158 -16l421 724h62l-421 -724h-62z" />
    <glyph glyph-name="uni2219" unicode="&#x2219;" horiz-adv-x="278" 
d="M71 312q0 27 19.5 46.5t46.5 19.5t46.5 -19.5t19.5 -46.5t-19.5 -46.5t-46.5 -19.5t-46.5 19.5t-19.5 46.5z" />
    <glyph glyph-name="radical" unicode="&#x221a;" horiz-adv-x="493" 
d="M502 786l-210 -1000h-66l-164 340l-46 -22l-24 50l100 48l158 -332l189 916h63z" />
    <glyph glyph-name="infinity" unicode="&#x221e;" horiz-adv-x="741" 
d="M333 249q-3 2 -8 7q-28 25 -45.5 39t-47.5 29.5t-54 15.5q-37 0 -58.5 -26.5t-21.5 -63.5q0 -39 22.5 -63.5t61.5 -24.5q57 0 151 87zM643 249q0 40 -21.5 66t-61.5 26q-16 0 -32.5 -5.5t-34 -18t-28.5 -21t-31 -26t-25 -22.5q3 -3 13 -11.5t14 -12t13.5 -11.5t15 -11.5
t15 -10t16 -10t16 -8t17 -6.5t16.5 -3.5t18 -1.5q37 0 58.5 24.5t21.5 62.5zM700 252q0 -63 -38.5 -105.5t-101.5 -42.5q-52 0 -95.5 28.5t-93.5 78.5q-10 -8 -33.5 -28.5t-36.5 -30.5t-34 -23.5t-42 -19t-44 -5.5q-62 0 -101 41t-39 104t38 105.5t100 42.5q28 0 53.5 -8.5
t54.5 -30.5t40.5 -32t43.5 -41l22 22t25 23.5t23 19.5t27 20t26.5 13.5t31.5 11.5t32 3q63 0 102.5 -41t39.5 -105z" />
    <glyph glyph-name="integral" unicode="&#x222b;" horiz-adv-x="543" 
d="M406 736q0 -34 -37 -34q-13 0 -21 6t-11.5 14t-8.5 14t-11 6q-10 0 -17 -9.5t-10.5 -25.5t-5.5 -34t-2.5 -39t0 -36.5t1 -30t0.5 -16.5v-504q0 -122 -16 -173q-28 -87 -106 -87q-24 0 -42 12t-18 35q0 14 9.5 23t23.5 9q15 0 23.5 -9.5t14 -19t12.5 -9.5q32 0 32 128v31
l1 21v495q0 8 -1 43.5t0 53.5t3.5 52t10.5 53t20.5 40t34.5 31t51 10q27 0 48.5 -12.5t21.5 -37.5z" />
    <glyph glyph-name="approxequal" unicode="&#x2248;" horiz-adv-x="593" 
d="M515 232h44q-7 -59 -37.5 -98.5t-86.5 -39.5q-45 0 -144 36.5t-133 36.5q-32 0 -52.5 -23.5t-26.5 -56.5h-45q22 140 123 140q45 0 144 -36.5t136 -36.5q62 0 78 78zM516 402h43q-7 -59 -37.5 -98t-85.5 -39q-45 0 -144.5 36.5t-133.5 36.5q-32 0 -52.5 -23.5
t-26.5 -56.5h-45q7 59 37.5 99t86.5 40q45 0 143 -36.5t136 -36.5q63 0 79 78z" />
    <glyph glyph-name="notequal" unicode="&#x2260;" horiz-adv-x="593" 
d="M547 120h-287l-76 -144l-52 27l62 117h-149v60h181l68 130h-249v60h282l77 147l52 -28l-63 -119h154v-60h-186l-69 -130h255v-60z" />
    <glyph glyph-name="lessequal" unicode="&#x2264;" horiz-adv-x="593" 
d="M547 -27h-502v59h502v-59zM547 75l-502 188v65l502 189v-65l-419 -157l419 -155v-65z" />
    <glyph glyph-name="greaterequal" unicode="&#x2265;" horiz-adv-x="593" 
d="M547 -27h-502v59h502v-59zM547 263l-502 -188v65l420 155l-420 157v65l502 -189v-65z" />
    <glyph glyph-name="lozenge" unicode="&#x25ca;" horiz-adv-x="593" 
d="M433 356l-137 325l-136 -325l136 -325zM498 356l-171 -391h-63l-169 391l169 391h63z" />
    <glyph glyph-name="commaaccent" unicode="&#xf004;" horiz-adv-x="278" 
d="M108 -150v100h74v-91q0 -73 -80 -79v31q33 8 34 39h-28z" />
    <glyph glyph-name="commaaccent" unicode="&#xf6c3;" horiz-adv-x="278" 
d="M108 -150v100h74v-91q0 -73 -80 -79v31q33 8 34 39h-28z" />
    <glyph glyph-name="dotlessj" unicode="&#xf6be;" 
d="M-75 -217v62q16 -3 50 -3q46 0 62.5 18.5t16.5 60.5v599h74v-599q0 -141 -133 -141q-1 0 -70 3z" />
    <glyph glyph-name="dotlessj" unicode="&#xfb0f;" 
d="M-75 -217v62q16 -3 50 -3q46 0 62.5 18.5t16.5 60.5v599h74v-599q0 -141 -133 -141q-1 0 -70 3z" />
    <glyph glyph-name="uniF8FF" unicode="&#xf8ff;" horiz-adv-x="512" 
d="M222 117h56v67h-56v-67zM225 234h46q0 52 6 72q6 19 43 52q37 34 50 60t13 60q0 59 -35 95t-89 36q-56 0 -92 -34t-43 -103l50 -8q11 95 82 95q31 0 53.5 -24.5t22.5 -60.5q0 -20 -9.5 -37t-40.5 -46q-31 -31 -46 -59q-13 -25 -13 -81zM462 50h-412v617h412v-617z
M512 718h-512v-718h512v718z" />
    <glyph glyph-name="commaaccent.alt" horiz-adv-x="278" 
d="M180 720v-100h-74v91q0 73 80 79v-31q-33 -8 -34 -39h28z" />
    <glyph glyph-name="caron.alt" 
d="M73 578l25 142h83l-57 -142h-51z" />
    <glyph glyph-name="grave.cap" 
d="M40 741l115 -142h-61l-144 142h90z" />
    <glyph glyph-name="acute.cap" 
d="M27 599l115 142h91l-145 -142h-61z" />
    <glyph glyph-name="circumflex.cap" 
d="M-91 599l142 142h80l143 -142h-75l-108 101l-107 -101h-75z" />
    <glyph glyph-name="caron.cap" 
d="M274 741l-143 -142h-80l-142 142h75l107 -101l108 101h75z" />
    <glyph glyph-name="tilde.cap" 
d="M232 724h44q-8 -43 -27 -70q-27 -38 -76 -38q-36 0 -90 26t-79 26q-46 0 -53 -52h-44q21 108 102 108q36 0 90 -26t79 -26q47 0 54 52z" />
    <glyph glyph-name="dieresis.cap" 
d="M167 615v110h74v-110h-74zM-58 615v110h73v-110h-73z" />
    <glyph glyph-name="macron.cap" 
d="M-102 642v56h385v-56h-385z" />
    <glyph glyph-name="breve.cap" 
d="M-73 736h50q3 -41 31 -58.5t83 -17.5q110 0 115 76h50q-12 -132 -165 -132q-152 0 -164 132z" />
    <glyph glyph-name="ring.cap" 
d="M19 700q0 -30 21 -51t51 -21t51 21t21 51t-21 51t-51 21t-51 -21t-21 -51zM-19 700q0 45 32 76t78 31q45 0 77.5 -30t32.5 -77t-32.5 -77t-77.5 -30q-47 0 -78.5 30t-31.5 77z" />
    <glyph glyph-name="hungarumlaut.cap" 
d="M138 599l115 142h91l-145 -142h-61zM-83 599l114 142h91l-144 -142h-61z" />
    <glyph glyph-name="dotaccent.cap" 
d="M54 615v110h74v-110h-74z" />
    </font>
</defs>
</svg>
